<?xml version="1.0" encoding="UTF-8"?>
<svg width="971px" height="781px" viewBox="0 0 971 781" version="1.1" xmlns="http://www.w3.org/2000/svg" xmlns:xlink="http://www.w3.org/1999/xlink">
    <title>horisontal</title>
    <g id="horisontal" stroke="none" stroke-width="1" fill="none" fill-rule="evenodd">
        <rect id="Rectangle" fill="#32C5FF" x="0" y="40" width="207" height="200" rx="8"></rect>
        <rect id="Rectangle" fill="#6DD400" x="207" y="40" width="141" height="110" rx="8"></rect>
        <rect id="Rectangle" fill="#F7B500" x="348" y="40" width="73" height="166" rx="8"></rect>
        <line x1="7.30318583e-16" y1="39" x2="421" y2="39" id="Line" stroke="#E02020" stroke-width="2"></line>
        <text id="align-=-svgJoin.Top" font-family="SFCompact-Regular, SF Compact" font-size="30" font-weight="normal" fill="#000000" fill-opacity="0.85">
            <tspan x="75" y="29">align = svgJoin.Top</tspan>
        </text>
        <text id="direction-=-svgJoin." font-family="SFCompact-Regular, SF Compact" font-size="30" font-weight="normal" fill="#000000" fill-opacity="0.85">
            <tspan x="575" y="152">direction = svgJoin.Rightward</tspan>
        </text>
        <text id="direction-=-svgJoin." font-family="SFCompact-Regular, SF Compact" font-size="30" font-weight="normal" fill="#000000" fill-opacity="0.85">
            <tspan x="575" y="420">direction = svgJoin.Leftward</tspan>
        </text>
        <rect id="Rectangle" fill="#32C5FF" x="0" y="311" width="207" height="200" rx="8"></rect>
        <rect id="Rectangle-Copy" fill="#32C5FF" x="550" y="170" width="207" height="200" rx="8"></rect>
        <rect id="Rectangle-Copy-4" fill="#32C5FF" x="764" y="438" width="207" height="200" rx="8"></rect>
        <rect id="Rectangle" fill="#6DD400" x="207" y="356" width="141" height="110" rx="8"></rect>
        <rect id="Rectangle-Copy-2" fill="#6DD400" x="757" y="215" width="141" height="110" rx="8"></rect>
        <rect id="Rectangle-Copy-5" fill="#6DD400" x="623" y="483" width="141" height="110" rx="8"></rect>
        <line x1="7.30318583e-16" y1="411" x2="421" y2="411" id="Line" stroke="#E02020" stroke-width="2"></line>
        <text id="align-=-svgJoin.Midl" font-family="SFCompact-Regular, SF Compact" font-size="30" font-weight="normal" fill="#000000" fill-opacity="0.85">
            <tspan x="75" y="300">align = svgJoin.Midle</tspan>
        </text>
        <rect id="Rectangle" fill="#F7B500" x="348" y="328" width="73" height="166" rx="8"></rect>
        <rect id="Rectangle-Copy-3" fill="#F7B500" x="898" y="187" width="73" height="166" rx="8"></rect>
        <rect id="Rectangle-Copy-6" fill="#F7B500" x="550" y="455" width="73" height="166" rx="8"></rect>
        <rect id="Rectangle" fill="#32C5FF" x="0" y="580" width="207" height="200" rx="8"></rect>
        <rect id="Rectangle" fill="#6DD400" x="207" y="670" width="141" height="110" rx="8"></rect>
        <rect id="Rectangle" fill="#F7B500" x="348" y="614" width="73" height="166" rx="8"></rect>
        <line x1="7.30318583e-16" y1="781" x2="421" y2="781" id="Line" stroke="#E02020" stroke-width="2"></line>
        <text id="align-=-svgJoin.Bott" font-family="SFCompact-Regular, SF Compact" font-size="30" font-weight="normal" fill="#000000" fill-opacity="0.85">
            <tspan x="75" y="571">align = svgJoin.Bottom</tspan>
        </text>
        <g id="1" transform="translate(644.563362, 249.344238)" fill="#FFFFFF" fill-rule="nonzero">
            <path d="M16.5736465,44.6557617 L16.5736465,0 L10.9742966,0 C9.24927012,0.943277995 7.41033808,1.99892807 5.45750046,3.16695023 C3.50466283,4.33497238 1.68549601,5.52846781 0,6.74743652 L0,12.8078613 C1.05096436,12.0840454 2.23500315,11.3021266 3.55211639,10.4621048 C4.86922963,9.62208303 6.15235011,8.82585144 7.40147781,8.07341003 C8.65060552,7.32096863 9.68257141,6.72170766 10.4973755,6.27562714 L10.619545,6.27562714 L10.619545,44.6557617 L16.5736465,44.6557617 Z" id="Path"></path>
        </g>
        <g id="1-copy" transform="translate(858.563362, 517.344238)" fill="#FFFFFF" fill-rule="nonzero">
            <path d="M16.5736465,44.6557617 L16.5736465,0 L10.9742966,0 C9.24927012,0.943277995 7.41033808,1.99892807 5.45750046,3.16695023 C3.50466283,4.33497238 1.68549601,5.52846781 0,6.74743652 L0,12.8078613 C1.05096436,12.0840454 2.23500315,11.3021266 3.55211639,10.4621048 C4.86922963,9.62208303 6.15235011,8.82585144 7.40147781,8.07341003 C8.65060552,7.32096863 9.68257141,6.72170766 10.4973755,6.27562714 L10.619545,6.27562714 L10.619545,44.6557617 L16.5736465,44.6557617 Z" id="Path"></path>
        </g>
        <g id="2" transform="translate(813.736137, 248.417488)" fill="#FFFFFF" fill-rule="nonzero">
            <path d="M5.84266663,13.358902 C5.84266663,13.3244832 5.84266663,13.284612 5.84266663,13.2392883 C5.84266663,13.1939646 5.84266663,13.1540934 5.84266663,13.1196747 C5.84266663,11.7016907 6.16649246,10.3858554 6.81414413,9.17216873 C7.46179581,7.95848211 8.40294393,6.98393758 9.6375885,6.24853516 C10.8722331,5.51313273 12.3450826,5.14543152 14.0561371,5.14543152 C15.5944163,5.14543152 16.9649467,5.44744746 18.1677284,6.05147934 C19.3705101,6.65551122 20.3193258,7.52347692 21.0141754,8.65537643 C21.7090251,9.78727595 22.0564499,11.1300329 22.0564499,12.6836472 C22.0564499,14.0160955 21.8101514,15.2545738 21.3175545,16.3990822 C20.8249575,17.5435905 20.1903407,18.6253955 19.4137039,19.6444969 C18.6370672,20.6635984 17.8174922,21.6613159 16.9549789,22.6376495 L0.301589966,41.7855453 L0.301589966,45.5825119 L29.0037537,45.5825119 L29.0037537,40.3619385 L8.69090271,40.3619385 L8.69090271,40.2525482 L20.5459442,26.4008789 C22.030721,24.6836904 23.3428078,23.0902049 24.4822044,21.6204224 C25.6216011,20.1506399 26.5204074,18.6685893 27.1786232,17.1742706 C27.836839,15.679952 28.165947,14.0372238 28.165947,12.2460861 C28.165947,9.88686879 27.5906258,7.78604762 26.4399834,5.94362259 C25.289341,4.10119756 23.670723,2.64998754 21.5841293,1.58999252 C19.4975357,0.529997508 17.050738,0 14.2437363,0 C11.9680099,0 9.94761276,0.355518341 8.18254471,1.06655502 C6.41747665,1.77759171 4.92605464,2.74412791 3.70827866,3.96616364 C2.49050268,5.18819936 1.56801224,6.5855662 0.940807343,8.15826416 C0.313602448,9.73096212 0,11.388855 0,13.1319427 L0,13.358902 L5.84266663,13.358902 Z" id="Path"></path>
        </g>
        <g id="2-copy" transform="translate(679.736137, 516.417488)" fill="#FFFFFF" fill-rule="nonzero">
            <path d="M5.84266663,13.358902 C5.84266663,13.3244832 5.84266663,13.284612 5.84266663,13.2392883 C5.84266663,13.1939646 5.84266663,13.1540934 5.84266663,13.1196747 C5.84266663,11.7016907 6.16649246,10.3858554 6.81414413,9.17216873 C7.46179581,7.95848211 8.40294393,6.98393758 9.6375885,6.24853516 C10.8722331,5.51313273 12.3450826,5.14543152 14.0561371,5.14543152 C15.5944163,5.14543152 16.9649467,5.44744746 18.1677284,6.05147934 C19.3705101,6.65551122 20.3193258,7.52347692 21.0141754,8.65537643 C21.7090251,9.78727595 22.0564499,11.1300329 22.0564499,12.6836472 C22.0564499,14.0160955 21.8101514,15.2545738 21.3175545,16.3990822 C20.8249575,17.5435905 20.1903407,18.6253955 19.4137039,19.6444969 C18.6370672,20.6635984 17.8174922,21.6613159 16.9549789,22.6376495 L0.301589966,41.7855453 L0.301589966,45.5825119 L29.0037537,45.5825119 L29.0037537,40.3619385 L8.69090271,40.3619385 L8.69090271,40.2525482 L20.5459442,26.4008789 C22.030721,24.6836904 23.3428078,23.0902049 24.4822044,21.6204224 C25.6216011,20.1506399 26.5204074,18.6685893 27.1786232,17.1742706 C27.836839,15.679952 28.165947,14.0372238 28.165947,12.2460861 C28.165947,9.88686879 27.5906258,7.78604762 26.4399834,5.94362259 C25.289341,4.10119756 23.670723,2.64998754 21.5841293,1.58999252 C19.4975357,0.529997508 17.050738,0 14.2437363,0 C11.9680099,0 9.94761276,0.355518341 8.18254471,1.06655502 C6.41747665,1.77759171 4.92605464,2.74412791 3.70827866,3.96616364 C2.49050268,5.18819936 1.56801224,6.5855662 0.940807343,8.15826416 C0.313602448,9.73096212 0,11.388855 0,13.1319427 L0,13.358902 L5.84266663,13.358902 Z" id="Path"></path>
        </g>
        <g id="3" transform="translate(919.023056, 248.417488)" fill="#FFFFFF" fill-rule="nonzero">
            <path d="M10.3399353,25.1265335 L14.9179688,25.1265335 C16.9670766,25.1265335 18.7103348,25.4574305 20.1477432,26.1192245 C21.5851517,26.7810186 22.6927706,27.710495 23.4706001,28.9076538 C24.2484296,30.1048126 24.647227,31.5076319 24.6669922,33.1161118 C24.6867574,34.7113012 24.3209305,36.1365267 23.5695114,37.3917885 C22.8180923,38.6470502 21.7143071,39.6336072 20.2581558,40.3514595 C18.8020045,41.0693118 17.0282466,41.4282379 14.936882,41.4282379 C12.9835332,41.4282379 11.3567365,41.0900993 10.0564919,40.4138222 C8.7562472,39.737545 7.74873225,38.8303897 7.03394699,37.6923561 C6.31916173,36.5543226 5.86328379,35.3027242 5.66631317,33.937561 L0,33.937561 C0.0984853109,36.2310079 0.697490692,38.3319143 1.79701614,40.2402802 C2.8965416,42.148646 4.52163442,43.6760203 6.67229462,44.822403 C8.82295481,45.9687856 11.5180105,46.5419769 14.7574615,46.5419769 C17.0819194,46.5419769 19.2266159,46.2086093 21.1915512,45.5418739 C23.1564865,44.8751386 24.8618329,43.9402949 26.3075905,42.7373428 C27.753348,41.5343908 28.8676974,40.1183662 29.6506386,38.4892693 C30.4335798,36.8601723 30.8052851,35.0832621 30.7657547,33.1585388 C30.726565,30.7458191 30.161808,28.760863 29.0714836,27.2036705 C27.9811592,25.646478 26.6888377,24.4741961 25.194519,23.6868248 C23.7002004,22.8994535 22.3168055,22.4522654 21.0443344,22.3452606 L21.0443344,22.2200241 C22.1958288,22.0302099 23.4129232,21.4839401 24.6956177,20.5812149 C25.9783122,19.6784897 27.0558573,18.4481049 27.9282532,16.8900604 C28.800649,15.332016 29.2071991,13.504926 29.1479034,11.4087906 C29.0889486,9.24415843 28.4614881,7.30214055 27.265522,5.58273697 C26.0695559,3.86333338 24.4235051,2.50302633 22.3273697,1.5018158 C20.2312342,0.500605265 17.7762578,0 14.9624405,0 C12.6809209,0 10.6790962,0.351258596 8.9569664,1.05377579 C7.23483658,1.75629298 5.79989878,2.6891772 4.65215302,3.85242844 C3.50440725,5.01567968 2.632267,6.31916173 2.03573227,7.7628746 C1.43919754,9.20658747 1.12678782,10.6793518 1.09850311,12.1811676 L6.84302521,12.1811676 C6.90198008,11.357844 7.1007398,10.5306867 7.43930435,9.69969559 C7.77786891,8.86870448 8.26918793,8.10212072 8.91326141,7.39994431 C9.5573349,6.69776789 10.3773359,6.13701502 11.3732643,5.7176857 C12.3691928,5.29835637 13.5533168,5.08869171 14.9256363,5.08869171 C17.4051488,5.08869171 19.3792852,5.76437251 20.8480453,7.1157341 C22.3168055,8.46709569 23.0610682,10.2169139 23.0808334,12.3651886 C23.1005987,13.8376973 22.7521515,15.1502101 22.0354919,16.3027267 C21.3188324,17.4552434 20.3247782,18.3582242 19.0533295,19.0116692 C17.7818807,19.6651141 16.3182322,19.9918365 14.662384,19.9918365 L10.3399353,19.9918365 L10.3399353,25.1265335 Z" id="Path"></path>
        </g>
        <g id="3-copy" transform="translate(571.023056, 516.417488)" fill="#FFFFFF" fill-rule="nonzero">
            <path d="M10.3399353,25.1265335 L14.9179688,25.1265335 C16.9670766,25.1265335 18.7103348,25.4574305 20.1477432,26.1192245 C21.5851517,26.7810186 22.6927706,27.710495 23.4706001,28.9076538 C24.2484296,30.1048126 24.647227,31.5076319 24.6669922,33.1161118 C24.6867574,34.7113012 24.3209305,36.1365267 23.5695114,37.3917885 C22.8180923,38.6470502 21.7143071,39.6336072 20.2581558,40.3514595 C18.8020045,41.0693118 17.0282466,41.4282379 14.936882,41.4282379 C12.9835332,41.4282379 11.3567365,41.0900993 10.0564919,40.4138222 C8.7562472,39.737545 7.74873225,38.8303897 7.03394699,37.6923561 C6.31916173,36.5543226 5.86328379,35.3027242 5.66631317,33.937561 L0,33.937561 C0.0984853109,36.2310079 0.697490692,38.3319143 1.79701614,40.2402802 C2.8965416,42.148646 4.52163442,43.6760203 6.67229462,44.822403 C8.82295481,45.9687856 11.5180105,46.5419769 14.7574615,46.5419769 C17.0819194,46.5419769 19.2266159,46.2086093 21.1915512,45.5418739 C23.1564865,44.8751386 24.8618329,43.9402949 26.3075905,42.7373428 C27.753348,41.5343908 28.8676974,40.1183662 29.6506386,38.4892693 C30.4335798,36.8601723 30.8052851,35.0832621 30.7657547,33.1585388 C30.726565,30.7458191 30.161808,28.760863 29.0714836,27.2036705 C27.9811592,25.646478 26.6888377,24.4741961 25.194519,23.6868248 C23.7002004,22.8994535 22.3168055,22.4522654 21.0443344,22.3452606 L21.0443344,22.2200241 C22.1958288,22.0302099 23.4129232,21.4839401 24.6956177,20.5812149 C25.9783122,19.6784897 27.0558573,18.4481049 27.9282532,16.8900604 C28.800649,15.332016 29.2071991,13.504926 29.1479034,11.4087906 C29.0889486,9.24415843 28.4614881,7.30214055 27.265522,5.58273697 C26.0695559,3.86333338 24.4235051,2.50302633 22.3273697,1.5018158 C20.2312342,0.500605265 17.7762578,0 14.9624405,0 C12.6809209,0 10.6790962,0.351258596 8.9569664,1.05377579 C7.23483658,1.75629298 5.79989878,2.6891772 4.65215302,3.85242844 C3.50440725,5.01567968 2.632267,6.31916173 2.03573227,7.7628746 C1.43919754,9.20658747 1.12678782,10.6793518 1.09850311,12.1811676 L6.84302521,12.1811676 C6.90198008,11.357844 7.1007398,10.5306867 7.43930435,9.69969559 C7.77786891,8.86870448 8.26918793,8.10212072 8.91326141,7.39994431 C9.5573349,6.69776789 10.3773359,6.13701502 11.3732643,5.7176857 C12.3691928,5.29835637 13.5533168,5.08869171 14.9256363,5.08869171 C17.4051488,5.08869171 19.3792852,5.76437251 20.8480453,7.1157341 C22.3168055,8.46709569 23.0610682,10.2169139 23.0808334,12.3651886 C23.1005987,13.8376973 22.7521515,15.1502101 22.0354919,16.3027267 C21.3188324,17.4552434 20.3247782,18.3582242 19.0533295,19.0116692 C17.7818807,19.6651141 16.3182322,19.9918365 14.662384,19.9918365 L10.3399353,19.9918365 L10.3399353,25.1265335 Z" id="Path"></path>
        </g>
    </g>
</svg>