<svg width="3754" height="1484" viewBox="0 0 3754 1484" xmlns="http://www.w3.org/2000/svg">
<g clip-path="url(#clp0)">
<clipPath id="clp0">
<rect x="0.000000" y="0.000000" width="3754.000000" height="1484.000000" />
</clipPath>

<g clip-path="url(#clp1)">
<clipPath id="clp1">
<rect x="0.000000" y="0.000000" width="1810.000000" height="1484.000000" />
</clipPath>

<g clip-path="url(#clp2)">
<clipPath id="clp2">
<rect x="0.000000" y="0.000000" width="94.000000" height="1484.000000" />
</clipPath>
<title>FC3</title>
    <g id="FC3" stroke="none" stroke-width="1" fill="none" fill-rule="evenodd">
        <g id="FlexCon" transform="translate(0.000000, 136.000000)" stroke="#303030" stroke-opacity="0.95">
            <path d="M86,1 C87.9329966,1 89.6829966,1.78350169 90.9497475,3.05025253 C92.2164983,4.31700338 93,6.06700338 93,8 L93,520 C93,521.932997 92.2164983,523.682997 90.9497475,524.949747 C89.6829966,526.216498 87.9329966,527 86,527 L79.6832591,527 C77.8636582,527.000165 76.1957512,526.303183 74.9446692,525.152859 C73.6935711,524.00252 72.8593077,522.398826 72.707039,520.585835 C71.8845408,510.76342 69.3181724,503.419986 65.0899645,498.514443 C60.7915232,493.527415 54.7728637,491 46.9997729,491 C39.2268193,491 33.2082671,493.527327 28.9099021,498.514176 C24.681766,503.419547 22.1154401,510.762722 21.2929639,520.584695 C21.1409346,522.39812 20.3067658,524.002031 19.0556575,525.152543 C17.8045554,526.30305 16.1365175,527.000164 14.3166504,527 L8,527 C6.06700338,527 4.31700338,526.216498 3.05025253,524.949747 C1.78350169,523.682997 1,521.932997 1,520 L1,8 C1,6.06700338 1.78350169,4.31700338 3.05025253,3.05025253 C4.31700338,1.78350169 6.06700338,1 8,1 L14.3167405,0.999999996 C16.1363408,0.999836061 17.8042472,1.69681781 19.0553287,2.8471421 C20.3064264,3.99748125 21.1406896,5.60117424 21.2929583,7.41416472 C22.1154489,17.2365777 24.6817939,24.5800108 28.9099629,29.4855536 C33.2083675,34.472584 39.2269757,37 47,37 C54.7730243,37 60.7916325,34.472584 65.0900371,29.4855536 C69.3182061,24.5800108 71.8845511,17.2365777 72.7070208,7.4144136 C72.8593104,5.60117424 73.6935736,3.99748125 74.9446713,2.8471421 C76.1957528,1.69681781 77.8636592,0.999836061 79.6833496,1 Z" id="Stroke-289" stroke-width="2" fill="#FFFFFF"></path>
            <line x1="21" y1="6" x2="21" y2="522" id="Line" stroke-width="2"></line>
            <line x1="73" y1="6" x2="73" y2="522" id="Line" stroke-width="2"></line>
            <line x1="47" y1="36" x2="47" y2="492" id="Line-Copy"></line>
        </g>
        <g id="FlexCon" transform="translate(0.000000, 780.000000)" stroke="#303030" stroke-opacity="0.95">
            <path d="M86,1 C87.9329966,1 89.6829966,1.78350169 90.9497475,3.05025253 C92.2164983,4.31700338 93,6.06700338 93,8 L93,520 C93,521.932997 92.2164983,523.682997 90.9497475,524.949747 C89.6829966,526.216498 87.9329966,527 86,527 L79.6832591,527 C77.8636582,527.000165 76.1957512,526.303183 74.9446692,525.152859 C73.6935711,524.00252 72.8593077,522.398826 72.707039,520.585835 C71.8845408,510.76342 69.3181724,503.419986 65.0899645,498.514443 C60.7915232,493.527415 54.7728637,491 46.9997729,491 C39.2268193,491 33.2082671,493.527327 28.9099021,498.514176 C24.681766,503.419547 22.1154401,510.762722 21.2929639,520.584695 C21.1409346,522.39812 20.3067658,524.002031 19.0556575,525.152543 C17.8045554,526.30305 16.1365175,527.000164 14.3166504,527 L8,527 C6.06700338,527 4.31700338,526.216498 3.05025253,524.949747 C1.78350169,523.682997 1,521.932997 1,520 L1,8 C1,6.06700338 1.78350169,4.31700338 3.05025253,3.05025253 C4.31700338,1.78350169 6.06700338,1 8,1 L14.3167405,0.999999996 C16.1363408,0.999836061 17.8042472,1.69681781 19.0553287,2.8471421 C20.3064264,3.99748125 21.1406896,5.60117424 21.2929583,7.41416472 C22.1154489,17.2365777 24.6817939,24.5800108 28.9099629,29.4855536 C33.2083675,34.472584 39.2269757,37 47,37 C54.7730243,37 60.7916325,34.472584 65.0900371,29.4855536 C69.3182061,24.5800108 71.8845511,17.2365777 72.7070208,7.4144136 C72.8593104,5.60117424 73.6935736,3.99748125 74.9446713,2.8471421 C76.1957528,1.69681781 77.8636592,0.999836061 79.6833496,1 Z" id="Stroke-289" stroke-width="2" fill="#FFFFFF"></path>
            <line x1="21" y1="6" x2="21" y2="522" id="Line" stroke-width="2"></line>
            <line x1="73" y1="6" x2="73" y2="522" id="Line" stroke-width="2"></line>
            <line x1="47" y1="36" x2="47" y2="492" id="Line-Copy"></line>
        </g>
        <line x1="1" y1="19" x2="1" y2="77" id="Line-2" stroke-opacity="0.95" stroke="#303030" stroke-width="2" stroke-linecap="round"></line>
        <path id="Line-3" d="M17.1215755,18.7597388 C17.3923393,19.2410966 17.2216191,19.8508117 16.7402612,20.1215755 L8.067,25 L85.932,25 L77.2597388,20.1215755 C76.8127636,19.870152 76.6336341,19.3264695 76.8271134,18.8646812 L76.8784245,18.7597388 C77.1491883,18.2783809 77.7589034,18.1076607 78.2402612,18.3784245 L90.2402612,25.1284245 L91.7897289,26 L90.2402612,26.8715755 L78.2402612,33.6215755 C77.7589034,33.8923393 77.1491883,33.7216191 76.8784245,33.2402612 C76.6076607,32.7589034 76.7783809,32.1491883 77.2597388,31.8784245 L85.932,27 L8.067,27 L16.7402612,31.8784245 C17.1872364,32.129848 17.3663659,32.6735305 17.1728866,33.1353188 L17.1215755,33.2402612 C16.8508117,33.7216191 16.2410966,33.8923393 15.7597388,33.6215755 L3.75973876,26.8715755 L2.21027114,26 L3.75973876,25.1284245 L15.7597388,18.3784245 C16.2410966,18.1076607 16.8508117,18.2783809 17.1215755,18.7597388 Z" fill-opacity="0.95" fill="#303030" fill-rule="nonzero"></path>
        <line x1="93" y1="19" x2="93" y2="77" id="Line-2" stroke-opacity="0.95" stroke="#303030" stroke-width="2" stroke-linecap="round"></line>
        <text id="{{-.Length.Upper-}}" font-family="ArialMT, Arial" font-size="24" font-weight="normal" letter-spacing="-0.00233333333" fill="#303030" fill-opacity="0.95">
            <tspan x="-51.2317396" y="22">{{ .Length.Upper }}</tspan>
        </text>
        <line x1="1" y1="1425" x2="1" y2="1483" id="Line-2-Copy" stroke-opacity="0.95" stroke="#303030" stroke-width="2" stroke-linecap="round"></line>
        <path id="Line-3-Copy" d="M17.1215755,1468.75974 C17.3923393,1469.2411 17.2216191,1469.85081 16.7402612,1470.12158 L8.067,1475 L85.932,1475 L77.2597388,1470.12158 C76.8127636,1469.87015 76.6336341,1469.32647 76.8271134,1468.86468 L76.8784245,1468.75974 C77.1491883,1468.27838 77.7589034,1468.10766 78.2402612,1468.37842 L90.2402612,1475.12842 L91.7897289,1476 L90.2402612,1476.87158 L78.2402612,1483.62158 C77.7589034,1483.89234 77.1491883,1483.72162 76.8784245,1483.24026 C76.6076607,1482.7589 76.7783809,1482.14919 77.2597388,1481.87842 L85.932,1477 L8.067,1477 L16.7402612,1481.87842 C17.1872364,1482.12985 17.3663659,1482.67353 17.1728866,1483.13532 L17.1215755,1483.24026 C16.8508117,1483.72162 16.2410966,1483.89234 15.7597388,1483.62158 L3.75973876,1476.87158 L2.21027114,1476 L3.75973876,1475.12842 L15.7597388,1468.37842 C16.2410966,1468.10766 16.8508117,1468.27838 17.1215755,1468.75974 Z" fill-opacity="0.95" fill="#303030" fill-rule="nonzero"></path>
        <line x1="93" y1="1425" x2="93" y2="1483" id="Line-2-Copy-2" stroke-opacity="0.95" stroke="#303030" stroke-width="2" stroke-linecap="round"></line>
        <text id="{{-.Length.Lower-}}" font-family="ArialMT, Arial" font-size="24" font-weight="normal" letter-spacing="-0.00233333333" fill="#303030" fill-opacity="0.95">
            <tspan x="-51.2317396" y="1472">{{ .Length.Lower }}</tspan>
        </text>
    </g>
</g>
<g clip-path="url(#clp3)">
<clipPath id="clp3">
<rect x="104.000000" y="0.000000" width="644.000000" height="1484.000000" />
</clipPath>
<g transform="translate(104, -0)">
<title>FVS1</title>
    <g id="FVS1" stroke="none" stroke-width="1" fill="none" fill-rule="evenodd">
        <g id="BOX" transform="translate(0.000000, 78.000000)" fill="#FFFFFF" stroke="#303030" stroke-opacity="0.95" stroke-width="4">
            <rect id="Rectangle" x="2" y="2" width="640" height="1284" rx="14"></rect>
        </g>
        <line x1="1" y1="19" x2="1" y2="77" id="Line-2" stroke-opacity="0.95" stroke="#303030" stroke-width="2" stroke-linecap="round"></line>
        <line x1="643" y1="19" x2="643" y2="77" id="Line-2" stroke-opacity="0.95" stroke="#303030" stroke-width="2" stroke-linecap="round"></line>
        <path id="Line-3" d="M17.1215755,18.7597388 C17.3923393,19.2410966 17.2216191,19.8508117 16.7402612,20.1215755 L8.067,25 L635.934,25 L627.259739,20.1215755 C626.812764,19.870152 626.633634,19.3264695 626.827113,18.8646812 L626.878424,18.7597388 C627.149188,18.2783809 627.758903,18.1076607 628.240261,18.3784245 L640.240261,25.1284245 L641.789729,26 L640.240261,26.8715755 L628.240261,33.6215755 C627.758903,33.8923393 627.149188,33.7216191 626.878424,33.2402612 C626.607661,32.7589034 626.778381,32.1491883 627.259739,31.8784245 L635.931,27 L8.067,27 L16.7402612,31.8784245 C17.1872364,32.129848 17.3663659,32.6735305 17.1728866,33.1353188 L17.1215755,33.2402612 C16.8508117,33.7216191 16.2410966,33.8923393 15.7597388,33.6215755 L3.75973876,26.8715755 L2.21027114,26 L3.75973876,25.1284245 L15.7597388,18.3784245 C16.2410966,18.1076607 16.8508117,18.2783809 17.1215755,18.7597388 Z" fill-opacity="0.95" fill="#303030" fill-rule="nonzero"></path>
        <text id="{{-.Length.Upper-}}" font-family="ArialMT, Arial" font-size="24" font-weight="normal" letter-spacing="-0.00233333333" fill="#303030" fill-opacity="0.95">
            <tspan x="223.76826" y="22">{{ .Length.Upper }}</tspan>
        </text>
        <line x1="-4.35693148e-14" y1="722" x2="644" y2="722" id="Line" stroke-opacity="0.95" stroke="#303030" stroke-width="2"></line>
        <g id="BF" transform="translate(0.000000, 1366.000000)" stroke="#303030" stroke-opacity="0.95">
            <rect id="Rectangle-Copy-7" stroke-width="4" fill="#FFFFFF" x="2" y="2" width="640" height="54" rx="14"></rect>
            <line x1="322" y1="-307" x2="322" y2="337" id="Line-3-Copy" stroke-width="2" transform="translate(322.000000, 15.000000) rotate(-90.000000) translate(-322.000000, -15.000000) "></line>
            <line x1="322" y1="-278" x2="322" y2="366" id="Line-3-Copy" stroke-width="2" transform="translate(322.000000, 44.000000) rotate(-90.000000) translate(-322.000000, -44.000000) "></line>
        </g>
        <line x1="1" y1="1425" x2="1" y2="1483" id="Line-2" stroke-opacity="0.95" stroke="#303030" stroke-width="2" stroke-linecap="round"></line>
        <path id="Line-3" d="M17.1215755,1468.75974 C17.3923393,1469.2411 17.2216191,1469.85081 16.7402612,1470.12158 L8.067,1475 L635.932,1475 L627.259739,1470.12158 C626.812764,1469.87015 626.633634,1469.32647 626.827113,1468.86468 L626.878424,1468.75974 C627.149188,1468.27838 627.758903,1468.10766 628.240261,1468.37842 L640.240261,1475.12842 L641.789729,1476 L640.240261,1476.87158 L628.240261,1483.62158 C627.758903,1483.89234 627.149188,1483.72162 626.878424,1483.24026 C626.607661,1482.7589 626.778381,1482.14919 627.259739,1481.87842 L635.932,1477 L8.067,1477 L16.7402612,1481.87842 C17.1872364,1482.12985 17.3663659,1482.67353 17.1728866,1483.13532 L17.1215755,1483.24026 C16.8508117,1483.72162 16.2410966,1483.89234 15.7597388,1483.62158 L3.75973876,1476.87158 L2.21027114,1476 L3.75973876,1475.12842 L15.7597388,1468.37842 C16.2410966,1468.10766 16.8508117,1468.27838 17.1215755,1468.75974 Z" fill-opacity="0.95" fill="#303030" fill-rule="nonzero"></path>
        <line x1="643" y1="1425" x2="643" y2="1483" id="Line-2" stroke-opacity="0.95" stroke="#303030" stroke-width="2" stroke-linecap="round"></line>
        <text id="{{-.Length.Lower-}}" font-family="ArialMT, Arial" font-size="24" font-weight="normal" letter-spacing="-0.00233333333" fill="#303030" fill-opacity="0.95">
            <tspan x="223.26826" y="1472">{{ .Length.Lower }}</tspan>
        </text>
        <g id="FC" transform="translate(546.000000, 251.000000)" stroke="#303030" stroke-opacity="0.95">
            <path d="M86,1 C87.9329966,1 89.6829966,1.78350169 90.9497475,3.05025253 C92.2164983,4.31700338 93,6.06700338 93,8 L93,390 C93,391.932997 92.2164983,393.682997 90.9497475,394.949747 C89.6829966,396.216498 87.9329966,397 86,397 L79.6832591,397 C77.8636582,397.000165 76.1957512,396.303183 74.9446692,395.152859 C73.6935711,394.00252 72.8593077,392.398826 72.707039,390.585835 C71.8845408,380.76342 69.3181724,373.419986 65.0899645,368.514443 C60.7915232,363.527415 54.7728637,361 46.9997729,361 C39.2268193,361 33.2082671,363.527327 28.9099021,368.514176 C24.681766,373.419547 22.1154401,380.762722 21.2929639,390.584695 C21.1409346,392.39812 20.3067658,394.002031 19.0556575,395.152543 C17.8045554,396.30305 16.1365175,397.000164 14.3166504,397 L8,397 C6.06700338,397 4.31700338,396.216498 3.05025253,394.949747 C1.78350169,393.682997 1,391.932997 1,390 L1,8 C1,6.06700338 1.78350169,4.31700338 3.05025253,3.05025253 C4.31700338,1.78350169 6.06700338,1 8,1 L14.3167405,0.999999996 C16.1363408,0.999836061 17.8042472,1.69681781 19.0553287,2.8471421 C20.3064264,3.99748125 21.1406896,5.60117424 21.2929583,7.41416472 C22.1154489,17.2365777 24.6817939,24.5800108 28.9099629,29.4855536 C33.2083675,34.472584 39.2269757,37 47,37 C54.7730243,37 60.7916325,34.472584 65.0900371,29.4855536 C69.3182061,24.5800108 71.8845511,17.2365777 72.7070208,7.4144136 C72.8593104,5.60117424 73.6935736,3.99748125 74.9446713,2.8471421 C76.1957528,1.69681781 77.8636592,0.999836061 79.6833496,1 Z" id="Stroke-289" stroke-width="2" fill="#FFFFFF"></path>
            <line x1="21" y1="6" x2="21" y2="392" id="Line" stroke-width="2"></line>
            <line x1="73" y1="6" x2="73" y2="392" id="Line" stroke-width="2"></line>
            <line x1="47" y1="36" x2="47" y2="362" id="Line-Copy"></line>
        </g>
        <g id="Blower" transform="translate(118.000000, 251.000000)" stroke="#303030">
            <rect id="Rectangle" stroke-opacity="0.95" stroke-width="2" fill="#FFFFFF" x="1" y="129" width="254" height="150" rx="22"></rect>
            <rect id="Rectangle" stroke-opacity="0.95" stroke-width="2" fill="#FFFFFF" x="127" y="67" width="92" height="56" rx="14"></rect>
            <line x1="58.5" y1="130" x2="58.5" y2="278" id="Line-2" stroke-opacity="0.95"></line>
            <line x1="219.5" y1="130" x2="219.5" y2="278" id="Line-2-Copy" stroke-opacity="0.95"></line>
            <line x1="59" y1="133.5" x2="219" y2="133.5" id="Line" stroke-opacity="0.95"></line>
            <line x1="59" y1="141.5" x2="219" y2="141.5" id="Line-3" stroke-opacity="0.95"></line>
            <line x1="59" y1="157.5" x2="219" y2="157.5" id="Line-4" stroke-opacity="0.95"></line>
            <line x1="59" y1="179.5" x2="219" y2="179.5" id="Line-5" stroke-opacity="0.95"></line>
            <line x1="59" y1="204" x2="219" y2="204" id="Line-6" stroke-opacity="0.95"></line>
            <line x1="59" y1="228.5" x2="219" y2="228.5" id="Line-7" stroke-opacity="0.95"></line>
            <line x1="59" y1="250.5" x2="219" y2="250.5" id="Line-8" stroke-opacity="0.95"></line>
            <line x1="59" y1="266.5" x2="219" y2="266.5" id="Line-9" stroke-opacity="0.95"></line>
            <line x1="59" y1="274.5" x2="219" y2="274.5" id="Line-10" stroke-opacity="0.95"></line>
            <line x1="197" y1="124" x2="197" y2="128" id="Line-12" stroke-opacity="0.95" stroke-width="2"></line>
            <line x1="149" y1="124" x2="149" y2="128" id="Line-12-Copy" stroke-opacity="0.95" stroke-width="2"></line>
            <rect id="Rectangle" stroke-opacity="0.95" stroke-width="2" x="78" y="279" width="92" height="20"></rect>
            <rect id="Rectangle" stroke-opacity="0.95" stroke-width="2" x="60" y="299" width="134" height="6" rx="3"></rect>
            <path d="M190,307 C193.589851,307 196.839851,308.455075 199.192388,310.807612 C201.544925,313.160149 203,316.410149 203,320 L203,399 L53,399 L53,320 C53,316.410149 54.4550746,313.160149 56.8076118,310.807612 C59.1601491,308.455075 62.4101491,307 66,307 Z" id="Rectangle" stroke-opacity="0.95" stroke-width="2"></path>
            <g id="Group" transform="translate(254.000000, 5.000000)">
                <path d="M109.000584,14.2793011 C109.000584,70.1133756 134.930629,98 167,98 C169.38647,98 171.869487,97.6182742 173.951524,97.0105203" id="Stroke-213" stroke-width="2"></path>
                <path d="M109.000584,300.279301 C109.000584,356.113376 134.930629,384 167,384 C169.38647,384 171.869487,383.618274 173.951524,383.01052" id="Stroke-213" stroke-width="2" transform="translate(141.476054, 342.139651) scale(1, -1) translate(-141.476054, -342.139651) "></path>
                <rect id="Rectangle" stroke-opacity="0.95" stroke-width="2" fill="#FFFFFF" x="17" y="1" width="92" height="396" rx="14"></rect>
                <rect id="Rectangle" stroke-opacity="0.95" stroke-width="2" fill="#FFFFFF" x="1" y="193" width="16" height="12"></rect>
                <line x1="18" y1="12.5" x2="108" y2="12.5" id="Line-11" stroke-opacity="0.95"></line>
                <line x1="18" y1="77.5" x2="108" y2="77.5" id="Line-11-Copy" stroke-opacity="0.95"></line>
                <line x1="18" y1="200.5" x2="108" y2="200.5" id="Line-11-Copy-2" stroke-opacity="0.95"></line>
                <line x1="18" y1="323.5" x2="108" y2="323.5" id="Line-11-Copy-3" stroke-opacity="0.95"></line>
            </g>
            <path d="M420,1 C421.932997,1 423.682997,1.78350169 424.949747,3.05025253 C426.216498,4.31700338 427,6.06700338 427,8 L427,390 C427,391.932997 426.216498,393.682997 424.949747,394.949747 C423.682997,396.216498 421.932997,397 420,397 L341,397 C339.067003,397 337.317003,396.216498 336.050253,394.949747 C334.783502,393.682997 334,391.932997 334,390 L334,377.022181 C334,376.428323 334.07557,375.836878 334.22489,375.262099 L406.710855,96.2407814 C406.902838,95.5017796 407,94.741351 407,93.977819 L407,8 C407,6.06700338 407.783502,4.31700338 409.050253,3.05025253 C410.317003,1.78350169 412.067003,1 414,1 Z" id="Path-8" stroke-opacity="0.95" stroke-width="2" fill="#FFFFFF"></path>
            <rect id="Rectangle" stroke-opacity="0.95" stroke-width="2" fill="#FFFFFF" x="1" y="399" width="426" height="34" rx="8"></rect>
            <rect id="Rectangle" stroke-opacity="0.95" stroke-width="2" fill="#FFFFFF" x="357" y="435" width="34" height="34" rx="8"></rect>
            <rect id="Rectangle" stroke-opacity="0.95" stroke-width="2" fill="#FFFFFF" x="37" y="435" width="34" height="34" rx="8"></rect>
            <circle id="Oval" stroke-opacity="0.95" stroke-width="2" cx="374" cy="344" r="17"></circle>
        </g>
        <g id="PockF" transform="translate(94.000000, 758.000000)" fill="#FFFFFF" stroke="#303030" stroke-opacity="0.95" stroke-width="2">
            <rect id="Rectangle" x="1" y="1" width="34" height="570" rx="14"></rect>
            <path d="M35,37.0945347 L411.891774,71.185248 C417.302145,71.6746282 422.079201,74.1870533 425.503665,77.9352478 C428.928129,81.6834424 431,86.6674064 431,92.0998646 L431,479.900135 C431,485.332594 428.928129,490.316558 425.503665,494.064752 C422.079201,497.812947 417.302145,500.325372 411.891774,500.814752 L35,534.905465 L35,37.0945347 Z" id="Path-7"></path>
        </g>
        <g id="PanF" transform="translate(36.000000, 758.000000)" stroke="#303030" stroke-opacity="0.95" stroke-width="2">
            <rect id="Rectangle" fill="#FFFFFF" x="1" y="1" width="56" height="570" rx="14"></rect>
            <polyline id="Path-6" stroke-linecap="round" stroke-linejoin="bevel" points="11 3 56 15.0526316 2 30.1052632 56 45.1578947 2 60.2105263 56 75.2631579 2 90.3157895 56 105.368421 2 120.421053 56 135.473684 2 150.526316 56 165.578947 2 180.631579 56 195.684211 2 210.736842 56 225.789474 2 240.842105 56 255.894737 2 270.947368 56 286 2 301.052632 56 316.105263 2 331.157895 56 346.210526 2 361.263158 56 376.315789 2 391.368421 56 406.421053 2 421.473684 56 436.526316 2 451.578947 56 466.631579 2 481.684211 56 496.736842 2 511.789474 56 526.842105 2 541.894737 56 556.947368 11 569"></polyline>
        </g>
    </g>
</g>
</g>
<g clip-path="url(#clp4)">
<clipPath id="clp4">
<rect x="758.000000" y="0.000000" width="398.000000" height="1484.000000" />
</clipPath>
<g transform="translate(758, -0)">
<title>RR0</title>
    <g id="RR0" stroke="none" stroke-width="1" fill="none" fill-rule="evenodd">
        <g id="BOX" transform="translate(0.000000, 78.000000)" fill="#FFFFFF" stroke="#303030" stroke-opacity="0.95" stroke-width="4">
            <rect id="Rectangle" x="2" y="2" width="394" height="1284" rx="14"></rect>
        </g>
        <line x1="2.65620859e-13" y1="722" x2="58" y2="722" id="Line" stroke-opacity="0.95" stroke="#303030" stroke-width="2"></line>
        <line x1="340" y1="722" x2="398" y2="722" id="Line" stroke-opacity="0.95" stroke="#303030" stroke-width="2"></line>
        <g id="BF" transform="translate(0.000000, 1366.000000)" stroke="#303030" stroke-opacity="0.95">
            <rect id="Rectangle-Copy-7" stroke-width="4" fill="#FFFFFF" x="2" y="2" width="394" height="54" rx="14"></rect>
            <line x1="199" y1="-184" x2="199" y2="214" id="Line-3-Copy" stroke-width="2" transform="translate(199.000000, 15.000000) rotate(-90.000000) translate(-199.000000, -15.000000) "></line>
            <line x1="199" y1="-155" x2="199" y2="243" id="Line-3-Copy" stroke-width="2" transform="translate(199.000000, 44.000000) rotate(-90.000000) translate(-199.000000, -44.000000) "></line>
        </g>
        <line x1="1" y1="1425" x2="1" y2="1483" id="Line-2" stroke-opacity="0.95" stroke="#303030" stroke-width="2" stroke-linecap="round"></line>
        <path id="Line-3" d="M17.1215755,1468.75974 C17.3923393,1469.2411 17.2216191,1469.85081 16.7402612,1470.12158 L8.067,1475 L389.932,1475 L381.259739,1470.12158 C380.812764,1469.87015 380.633634,1469.32647 380.827113,1468.86468 L380.878424,1468.75974 C381.149188,1468.27838 381.758903,1468.10766 382.240261,1468.37842 L394.240261,1475.12842 L395.789729,1476 L394.240261,1476.87158 L382.240261,1483.62158 C381.758903,1483.89234 381.149188,1483.72162 380.878424,1483.24026 C380.607661,1482.7589 380.778381,1482.14919 381.259739,1481.87842 L389.932,1477 L8.067,1477 L16.7402612,1481.87842 C17.1872364,1482.12985 17.3663659,1482.67353 17.1728866,1483.13532 L17.1215755,1483.24026 C16.8508117,1483.72162 16.2410966,1483.89234 15.7597388,1483.62158 L3.75973876,1476.87158 L2.21027114,1476 L3.75973876,1475.12842 L15.7597388,1468.37842 C16.2410966,1468.10766 16.8508117,1468.27838 17.1215755,1468.75974 Z" fill-opacity="0.95" fill="#303030" fill-rule="nonzero"></path>
        <text id="{{-.Length.Lower-}}" font-family="ArialMT, Arial" font-size="24" font-weight="normal" letter-spacing="-0.00233333333" fill="#303030" fill-opacity="0.95">
            <tspan x="100.26826" y="1472">{{ .Length.Lower }}</tspan>
        </text>
        <g id="R" transform="translate(58.000000, 136.000000)" stroke="#303030" stroke-opacity="0.95" stroke-width="2">
            <rect id="Rectangle" fill="#FFFFFF" x="1" y="1" width="280" height="1170" rx="22"></rect>
            <path d="M210.880727,202.292599 C202.215709,109.916956 175.701412,58 140.301904,58 C58.0104982,58 57.8682018,369.899194 58.0104982,583.057585 C58.1871991,848.355653 58.1871991,1114 141.005249,1114 C223.823299,1114 224,849.836533 224,583.057585" id="Path-4" stroke-linecap="round"></path>
            <polyline id="Path-5" stroke-linecap="round" points="214.031628 602.128958 224 583.057585 233.972782 602.128958"></polyline>
        </g>
        <line x1="1" y1="19" x2="1" y2="77" id="Line-2" stroke-opacity="0.95" stroke="#303030" stroke-width="2" stroke-linecap="round"></line>
        <path id="Line-3" d="M18.1402437,17.7910847 C18.4097628,18.2731406 18.2374676,18.8824126 17.7554117,19.1519317 L9.069,24.008 L17.2487582,24.0290632 L381.75641,24.9709435 L389.935,24.992 L381.274968,20.0912587 C380.828644,19.838681 380.65092,19.2945374 380.845591,18.8332507 L380.897174,18.7284411 C381.16918,18.2477845 381.779334,18.0786403 382.259991,18.3506471 L394.242509,25.1316322 L395.78972,26.0072086 L394.238005,26.8747774 L382.220603,33.5937472 C381.738547,33.8632663 381.129275,33.6909712 380.859756,33.2089153 C380.590237,32.7268594 380.762532,32.1175874 381.244588,31.8480683 L389.93,26.991 L381.751242,26.9709368 L17.2435902,26.0290565 L9.064,26.007 L17.7250324,30.9087413 C18.1713564,31.161319 18.3490804,31.7054626 18.1544085,32.1667493 L18.1028264,32.2715589 C17.8308197,32.7522155 17.2206655,32.9213597 16.7400089,32.6493529 L4.75749078,25.8683678 L3.21028045,24.9927914 L4.76199503,24.1252226 L16.7793968,17.4062528 C17.2614527,17.1367337 17.8707246,17.3090288 18.1402437,17.7910847 Z" fill-opacity="0.95" fill="#303030" fill-rule="nonzero"></path>
        <text id="{{-.Length.Upper-}}" font-family="ArialMT, Arial" font-size="24" font-weight="normal" letter-spacing="-0.00233333333" fill="#303030" fill-opacity="0.95">
            <tspan x="100.76826" y="22">{{ .Length.Upper }}</tspan>
        </text>
        <line x1="397" y1="19" x2="397" y2="77" id="Line-2" stroke-opacity="0.95" stroke="#303030" stroke-width="2" stroke-linecap="round"></line>
        <line x1="397" y1="1425" x2="397" y2="1483" id="Line-2" stroke-opacity="0.95" stroke="#303030" stroke-width="2" stroke-linecap="round"></line>
    </g>
</g>
</g>
<g clip-path="url(#clp5)">
<clipPath id="clp5">
<rect x="1166.000000" y="0.000000" width="644.000000" height="1484.000000" />
</clipPath>
<g transform="translate(1166, -0)">
<title>FVS2</title>
    <g id="FVS2" stroke="none" stroke-width="1" fill="none" fill-rule="evenodd">
        <g id="BOX" transform="translate(0.000000, 78.000000)" fill="#FFFFFF" stroke="#303030" stroke-opacity="0.95" stroke-width="4">
            <rect id="Rectangle" x="2" y="2" width="640" height="1284" rx="14"></rect>
        </g>
        <line x1="1" y1="19" x2="1" y2="77" id="Line-2" stroke-opacity="0.95" stroke="#303030" stroke-width="2" stroke-linecap="round"></line>
        <line x1="643" y1="19" x2="643" y2="77" id="Line-2" stroke-opacity="0.95" stroke="#303030" stroke-width="2" stroke-linecap="round"></line>
        <path id="Line-3" d="M17.1215755,18.7597388 C17.3923393,19.2410966 17.2216191,19.8508117 16.7402612,20.1215755 L8.067,25 L635.934,25 L627.259739,20.1215755 C626.812764,19.870152 626.633634,19.3264695 626.827113,18.8646812 L626.878424,18.7597388 C627.149188,18.2783809 627.758903,18.1076607 628.240261,18.3784245 L640.240261,25.1284245 L641.789729,26 L640.240261,26.8715755 L628.240261,33.6215755 C627.758903,33.8923393 627.149188,33.7216191 626.878424,33.2402612 C626.607661,32.7589034 626.778381,32.1491883 627.259739,31.8784245 L635.931,27 L8.067,27 L16.7402612,31.8784245 C17.1872364,32.129848 17.3663659,32.6735305 17.1728866,33.1353188 L17.1215755,33.2402612 C16.8508117,33.7216191 16.2410966,33.8923393 15.7597388,33.6215755 L3.75973876,26.8715755 L2.21027114,26 L3.75973876,25.1284245 L15.7597388,18.3784245 C16.2410966,18.1076607 16.8508117,18.2783809 17.1215755,18.7597388 Z" fill-opacity="0.95" fill="#303030" fill-rule="nonzero"></path>
        <text id="{{-.Length.Upper-}}" font-family="ArialMT, Arial" font-size="24" font-weight="normal" letter-spacing="-0.00233333333" fill="#303030" fill-opacity="0.95">
            <tspan x="223.76826" y="22">{{ .Length.Upper }}</tspan>
        </text>
        <line x1="-4.35693148e-14" y1="722" x2="644" y2="722" id="Line" stroke-opacity="0.95" stroke="#303030" stroke-width="2"></line>
        <g id="BF" transform="translate(0.000000, 1366.000000)" stroke="#303030" stroke-opacity="0.95">
            <rect id="Rectangle-Copy-7" stroke-width="4" fill="#FFFFFF" x="2" y="2" width="640" height="54" rx="14"></rect>
            <line x1="322" y1="-307" x2="322" y2="337" id="Line-3-Copy" stroke-width="2" transform="translate(322.000000, 15.000000) rotate(-90.000000) translate(-322.000000, -15.000000) "></line>
            <line x1="322" y1="-278" x2="322" y2="366" id="Line-3-Copy" stroke-width="2" transform="translate(322.000000, 44.000000) rotate(-90.000000) translate(-322.000000, -44.000000) "></line>
        </g>
        <line x1="1" y1="1425" x2="1" y2="1483" id="Line-2" stroke-opacity="0.95" stroke="#303030" stroke-width="2" stroke-linecap="round"></line>
        <path id="Line-3" d="M17.1215755,1468.75974 C17.3923393,1469.2411 17.2216191,1469.85081 16.7402612,1470.12158 L8.067,1475 L635.932,1475 L627.259739,1470.12158 C626.812764,1469.87015 626.633634,1469.32647 626.827113,1468.86468 L626.878424,1468.75974 C627.149188,1468.27838 627.758903,1468.10766 628.240261,1468.37842 L640.240261,1475.12842 L641.789729,1476 L640.240261,1476.87158 L628.240261,1483.62158 C627.758903,1483.89234 627.149188,1483.72162 626.878424,1483.24026 C626.607661,1482.7589 626.778381,1482.14919 627.259739,1481.87842 L635.932,1477 L8.067,1477 L16.7402612,1481.87842 C17.1872364,1482.12985 17.3663659,1482.67353 17.1728866,1483.13532 L17.1215755,1483.24026 C16.8508117,1483.72162 16.2410966,1483.89234 15.7597388,1483.62158 L3.75973876,1476.87158 L2.21027114,1476 L3.75973876,1475.12842 L15.7597388,1468.37842 C16.2410966,1468.10766 16.8508117,1468.27838 17.1215755,1468.75974 Z" fill-opacity="0.95" fill="#303030" fill-rule="nonzero"></path>
        <line x1="643" y1="1425" x2="643" y2="1483" id="Line-2" stroke-opacity="0.95" stroke="#303030" stroke-width="2" stroke-linecap="round"></line>
        <text id="{{-.Length.Lower-}}" font-family="ArialMT, Arial" font-size="24" font-weight="normal" letter-spacing="-0.00233333333" fill="#303030" fill-opacity="0.95">
            <tspan x="223.76826" y="1472">{{ .Length.Lower }}</tspan>
        </text>
        <g id="FC" transform="translate(4.000000, 892.000000)" stroke="#303030" stroke-opacity="0.95">
            <path d="M86,1 C87.9329966,1 89.6829966,1.78350169 90.9497475,3.05025253 C92.2164983,4.31700338 93,6.06700338 93,8 L93,390 C93,391.932997 92.2164983,393.682997 90.9497475,394.949747 C89.6829966,396.216498 87.9329966,397 86,397 L79.6832591,397 C77.8636582,397.000165 76.1957512,396.303183 74.9446692,395.152859 C73.6935711,394.00252 72.8593077,392.398826 72.707039,390.585835 C71.8845408,380.76342 69.3181724,373.419986 65.0899645,368.514443 C60.7915232,363.527415 54.7728637,361 46.9997729,361 C39.2268193,361 33.2082671,363.527327 28.9099021,368.514176 C24.681766,373.419547 22.1154401,380.762722 21.2929639,390.584695 C21.1409346,392.39812 20.3067658,394.002031 19.0556575,395.152543 C17.8045554,396.30305 16.1365175,397.000164 14.3166504,397 L8,397 C6.06700338,397 4.31700338,396.216498 3.05025253,394.949747 C1.78350169,393.682997 1,391.932997 1,390 L1,8 C1,6.06700338 1.78350169,4.31700338 3.05025253,3.05025253 C4.31700338,1.78350169 6.06700338,1 8,1 L14.3167405,0.999999996 C16.1363408,0.999836061 17.8042472,1.69681781 19.0553287,2.8471421 C20.3064264,3.99748125 21.1406896,5.60117424 21.2929583,7.41416472 C22.1154489,17.2365777 24.6817939,24.5800108 28.9099629,29.4855536 C33.2083675,34.472584 39.2269757,37 47,37 C54.7730243,37 60.7916325,34.472584 65.0900371,29.4855536 C69.3182061,24.5800108 71.8845511,17.2365777 72.7070208,7.4144136 C72.8593104,5.60117424 73.6935736,3.99748125 74.9446713,2.8471421 C76.1957528,1.69681781 77.8636592,0.999836061 79.6833496,1 Z" id="Stroke-289" stroke-width="2" fill="#FFFFFF"></path>
            <line x1="21" y1="6" x2="21" y2="392" id="Line" stroke-width="2"></line>
            <line x1="73" y1="6" x2="73" y2="392" id="Line" stroke-width="2"></line>
            <line x1="47" y1="36" x2="47" y2="362" id="Line-Copy"></line>
        </g>
        <g id="Blower" transform="translate(312.000000, 1127.000000) scale(-1, 1) translate(-312.000000, -1127.000000) translate(98.000000, 892.000000)" stroke="#303030">
            <rect id="Rectangle" stroke-opacity="0.95" stroke-width="2" fill="#FFFFFF" x="1" y="129" width="254" height="150" rx="22"></rect>
            <rect id="Rectangle" stroke-opacity="0.95" stroke-width="2" fill="#FFFFFF" x="127" y="67" width="92" height="56" rx="14"></rect>
            <line x1="58.5" y1="130" x2="58.5" y2="278" id="Line-2" stroke-opacity="0.95"></line>
            <line x1="219.5" y1="130" x2="219.5" y2="278" id="Line-2-Copy" stroke-opacity="0.95"></line>
            <line x1="59" y1="133.5" x2="219" y2="133.5" id="Line" stroke-opacity="0.95"></line>
            <line x1="59" y1="141.5" x2="219" y2="141.5" id="Line-3" stroke-opacity="0.95"></line>
            <line x1="59" y1="157.5" x2="219" y2="157.5" id="Line-4" stroke-opacity="0.95"></line>
            <line x1="59" y1="179.5" x2="219" y2="179.5" id="Line-5" stroke-opacity="0.95"></line>
            <line x1="59" y1="204" x2="219" y2="204" id="Line-6" stroke-opacity="0.95"></line>
            <line x1="59" y1="228.5" x2="219" y2="228.5" id="Line-7" stroke-opacity="0.95"></line>
            <line x1="59" y1="250.5" x2="219" y2="250.5" id="Line-8" stroke-opacity="0.95"></line>
            <line x1="59" y1="266.5" x2="219" y2="266.5" id="Line-9" stroke-opacity="0.95"></line>
            <line x1="59" y1="274.5" x2="219" y2="274.5" id="Line-10" stroke-opacity="0.95"></line>
            <line x1="197" y1="124" x2="197" y2="128" id="Line-12" stroke-opacity="0.95" stroke-width="2"></line>
            <line x1="149" y1="124" x2="149" y2="128" id="Line-12-Copy" stroke-opacity="0.95" stroke-width="2"></line>
            <rect id="Rectangle" stroke-opacity="0.95" stroke-width="2" x="78" y="279" width="92" height="20"></rect>
            <rect id="Rectangle" stroke-opacity="0.95" stroke-width="2" x="60" y="299" width="134" height="6" rx="3"></rect>
            <path d="M190,307 C193.589851,307 196.839851,308.455075 199.192388,310.807612 C201.544925,313.160149 203,316.410149 203,320 L203,399 L53,399 L53,320 C53,316.410149 54.4550746,313.160149 56.8076118,310.807612 C59.1601491,308.455075 62.4101491,307 66,307 Z" id="Rectangle" stroke-opacity="0.95" stroke-width="2"></path>
            <g id="Group" transform="translate(254.000000, 5.000000)">
                <path d="M109.000584,14.2793011 C109.000584,70.1133756 134.930629,98 167,98 C169.38647,98 171.869487,97.6182742 173.951524,97.0105203" id="Stroke-213" stroke-width="2"></path>
                <path d="M109.000584,300.279301 C109.000584,356.113376 134.930629,384 167,384 C169.38647,384 171.869487,383.618274 173.951524,383.01052" id="Stroke-213" stroke-width="2" transform="translate(141.476054, 342.139651) scale(1, -1) translate(-141.476054, -342.139651) "></path>
                <rect id="Rectangle" stroke-opacity="0.95" stroke-width="2" fill="#FFFFFF" x="17" y="1" width="92" height="396" rx="14"></rect>
                <rect id="Rectangle" stroke-opacity="0.95" stroke-width="2" fill="#FFFFFF" x="1" y="193" width="16" height="12"></rect>
                <line x1="18" y1="12.5" x2="108" y2="12.5" id="Line-11" stroke-opacity="0.95"></line>
                <line x1="18" y1="77.5" x2="108" y2="77.5" id="Line-11-Copy" stroke-opacity="0.95"></line>
                <line x1="18" y1="200.5" x2="108" y2="200.5" id="Line-11-Copy-2" stroke-opacity="0.95"></line>
                <line x1="18" y1="323.5" x2="108" y2="323.5" id="Line-11-Copy-3" stroke-opacity="0.95"></line>
            </g>
            <path d="M420,1 C421.932997,1 423.682997,1.78350169 424.949747,3.05025253 C426.216498,4.31700338 427,6.06700338 427,8 L427,390 C427,391.932997 426.216498,393.682997 424.949747,394.949747 C423.682997,396.216498 421.932997,397 420,397 L341,397 C339.067003,397 337.317003,396.216498 336.050253,394.949747 C334.783502,393.682997 334,391.932997 334,390 L334,377.022181 C334,376.428323 334.07557,375.836878 334.22489,375.262099 L406.710855,96.2407814 C406.902838,95.5017796 407,94.741351 407,93.977819 L407,8 C407,6.06700338 407.783502,4.31700338 409.050253,3.05025253 C410.317003,1.78350169 412.067003,1 414,1 Z" id="Path-8" stroke-opacity="0.95" stroke-width="2" fill="#FFFFFF"></path>
            <rect id="Rectangle" stroke-opacity="0.95" stroke-width="2" fill="#FFFFFF" x="1" y="399" width="426" height="34" rx="8"></rect>
            <rect id="Rectangle" stroke-opacity="0.95" stroke-width="2" fill="#FFFFFF" x="357" y="435" width="34" height="34" rx="8"></rect>
            <rect id="Rectangle" stroke-opacity="0.95" stroke-width="2" fill="#FFFFFF" x="37" y="435" width="34" height="34" rx="8"></rect>
            <circle id="Oval" stroke-opacity="0.95" stroke-width="2" cx="374" cy="344" r="17"></circle>
        </g>
        <g id="PockF" transform="translate(334.000000, 400.000000) scale(-1, 1) translate(-334.000000, -400.000000) translate(118.000000, 114.000000)" fill="#FFFFFF" stroke="#303030" stroke-opacity="0.95" stroke-width="2">
            <rect id="Rectangle" x="1" y="1" width="34" height="570" rx="14"></rect>
            <path d="M35,37.0945347 L411.891774,71.185248 C417.302145,71.6746282 422.079201,74.1870533 425.503665,77.9352478 C428.928129,81.6834424 431,86.6674064 431,92.0998646 L431,479.900135 C431,485.332594 428.928129,490.316558 425.503665,494.064752 C422.079201,497.812947 417.302145,500.325372 411.891774,500.814752 L35,534.905465 L35,37.0945347 Z" id="Path-7"></path>
        </g>
        <g id="PanF" transform="translate(579.000000, 400.000000) scale(-1, 1) translate(-579.000000, -400.000000) translate(550.000000, 114.000000)" stroke="#303030" stroke-opacity="0.95" stroke-width="2">
            <rect id="Rectangle" fill="#FFFFFF" x="1" y="1" width="56" height="570" rx="14"></rect>
            <polyline id="Path-6" stroke-linecap="round" stroke-linejoin="bevel" points="11 3 56 15.0526316 2 30.1052632 56 45.1578947 2 60.2105263 56 75.2631579 2 90.3157895 56 105.368421 2 120.421053 56 135.473684 2 150.526316 56 165.578947 2 180.631579 56 195.684211 2 210.736842 56 225.789474 2 240.842105 56 255.894737 2 270.947368 56 286 2 301.052632 56 316.105263 2 331.157895 56 346.210526 2 361.263158 56 376.315789 2 391.368421 56 406.421053 2 421.473684 56 436.526316 2 451.578947 56 466.631579 2 481.684211 56 496.736842 2 511.789474 56 526.842105 2 541.894737 56 556.947368 11 569"></polyline>
        </g>
    </g>
</g>
</g>
</g>

<g clip-path="url(#clp6)">
<clipPath id="clp6">
<rect x="1820.000000" y="0.000000" width="1934.000000" height="1484.000000" />
</clipPath>

<g clip-path="url(#clp7)">
<clipPath id="clp7">
<rect x="1820.000000" y="0.000000" width="748.000000" height="722.000000" />
</clipPath>

<g clip-path="url(#clp8)">
<clipPath id="clp8">
<rect x="1820.000000" y="0.000000" width="644.000000" height="722.000000" />
</clipPath>
<g transform="translate(1820, -0)">
<title>STS1</title>
    <g id="STS1" stroke="none" stroke-width="1" fill="none" fill-rule="evenodd">
        <g id="BOX" transform="translate(0.000000, 78.000000)" fill="#FFFFFF" stroke="#303030" stroke-opacity="0.95" stroke-width="4">
            <rect id="Rectangle" x="2" y="2" width="640" height="640" rx="14"></rect>
        </g>
        <g id="STS-Copy" transform="translate(58.000000, 136.000000)" stroke="#303030" stroke-opacity="0.95" stroke-width="2">
            <rect id="Rectangle" fill="#FFFFFF" x="1" y="1" width="526" height="526" rx="22"></rect>
            <line x1="264" y1="201" x2="264" y2="527" id="Line-3-Copy" stroke-linecap="round"></line>
            <line x1="95" y1="1" x2="95" y2="327" id="Line-3" stroke-linecap="round"></line>
            <line x1="433" y1="1" x2="433" y2="327" id="Line-3" stroke-linecap="round"></line>
        </g>
        <line x1="1" y1="19" x2="1" y2="77" id="Line-2" stroke-opacity="0.95" stroke="#303030" stroke-width="2" stroke-linecap="round"></line>
        <line x1="643" y1="19" x2="643" y2="77" id="Line-2" stroke-opacity="0.95" stroke="#303030" stroke-width="2" stroke-linecap="round"></line>
        <path id="Line-3" d="M17.1215755,18.7597388 C17.3923393,19.2410966 17.2216191,19.8508117 16.7402612,20.1215755 L8.067,25 L635.934,25 L627.259739,20.1215755 C626.812764,19.870152 626.633634,19.3264695 626.827113,18.8646812 L626.878424,18.7597388 C627.149188,18.2783809 627.758903,18.1076607 628.240261,18.3784245 L640.240261,25.1284245 L641.789729,26 L640.240261,26.8715755 L628.240261,33.6215755 C627.758903,33.8923393 627.149188,33.7216191 626.878424,33.2402612 C626.607661,32.7589034 626.778381,32.1491883 627.259739,31.8784245 L635.931,27 L8.067,27 L16.7402612,31.8784245 C17.1872364,32.129848 17.3663659,32.6735305 17.1728866,33.1353188 L17.1215755,33.2402612 C16.8508117,33.7216191 16.2410966,33.8923393 15.7597388,33.6215755 L3.75973876,26.8715755 L2.21027114,26 L3.75973876,25.1284245 L15.7597388,18.3784245 C16.2410966,18.1076607 16.8508117,18.2783809 17.1215755,18.7597388 Z" fill-opacity="0.95" fill="#303030" fill-rule="nonzero"></path>
        <text id="{{-.Length.Upper-}}" font-family="ArialMT, Arial" font-size="24" font-weight="normal" letter-spacing="-0.00233333333" fill="#303030" fill-opacity="0.95">
            <tspan x="223.76826" y="22">{{ .Length.Upper }}</tspan>
        </text>
    </g>
</g>
</g>
<g clip-path="url(#clp9)">
<clipPath id="clp9">
<rect x="2474.000000" y="0.000000" width="94.000000" height="664.000000" />
</clipPath>
<g transform="translate(2474, -0)">
<title>FC1</title>
    <g id="FC1" stroke="none" stroke-width="1" fill="none" fill-rule="evenodd">
        <g id="FlexCon" transform="translate(0.000000, 136.000000)" stroke="#303030" stroke-opacity="0.95">
            <path d="M86,1 C87.9329966,1 89.6829966,1.78350169 90.9497475,3.05025253 C92.2164983,4.31700338 93,6.06700338 93,8 L93,520 C93,521.932997 92.2164983,523.682997 90.9497475,524.949747 C89.6829966,526.216498 87.9329966,527 86,527 L79.6832591,527 C77.8636582,527.000165 76.1957512,526.303183 74.9446692,525.152859 C73.6935711,524.00252 72.8593077,522.398826 72.707039,520.585835 C71.8845408,510.76342 69.3181724,503.419986 65.0899645,498.514443 C60.7915232,493.527415 54.7728637,491 46.9997729,491 C39.2268193,491 33.2082671,493.527327 28.9099021,498.514176 C24.681766,503.419547 22.1154401,510.762722 21.2929639,520.584695 C21.1409346,522.39812 20.3067658,524.002031 19.0556575,525.152543 C17.8045554,526.30305 16.1365175,527.000164 14.3166504,527 L8,527 C6.06700338,527 4.31700338,526.216498 3.05025253,524.949747 C1.78350169,523.682997 1,521.932997 1,520 L1,8 C1,6.06700338 1.78350169,4.31700338 3.05025253,3.05025253 C4.31700338,1.78350169 6.06700338,1 8,1 L14.3167405,0.999999996 C16.1363408,0.999836061 17.8042472,1.69681781 19.0553287,2.8471421 C20.3064264,3.99748125 21.1406896,5.60117424 21.2929583,7.41416472 C22.1154489,17.2365777 24.6817939,24.5800108 28.9099629,29.4855536 C33.2083675,34.472584 39.2269757,37 47,37 C54.7730243,37 60.7916325,34.472584 65.0900371,29.4855536 C69.3182061,24.5800108 71.8845511,17.2365777 72.7070208,7.4144136 C72.8593104,5.60117424 73.6935736,3.99748125 74.9446713,2.8471421 C76.1957528,1.69681781 77.8636592,0.999836061 79.6833496,1 Z" id="Stroke-289" stroke-width="2" fill="#FFFFFF"></path>
            <line x1="21" y1="6" x2="21" y2="522" id="Line" stroke-width="2"></line>
            <line x1="73" y1="6" x2="73" y2="522" id="Line" stroke-width="2"></line>
            <line x1="47" y1="36" x2="47" y2="492" id="Line-Copy"></line>
        </g>
        <line x1="1" y1="19" x2="1" y2="77" id="Line-2" stroke-opacity="0.95" stroke="#303030" stroke-width="2" stroke-linecap="round"></line>
        <path id="Line-3" d="M17.1215755,18.7597388 C17.3923393,19.2410966 17.2216191,19.8508117 16.7402612,20.1215755 L8.067,25 L85.932,25 L77.2597388,20.1215755 C76.8127636,19.870152 76.6336341,19.3264695 76.8271134,18.8646812 L76.8784245,18.7597388 C77.1491883,18.2783809 77.7589034,18.1076607 78.2402612,18.3784245 L90.2402612,25.1284245 L91.7897289,26 L90.2402612,26.8715755 L78.2402612,33.6215755 C77.7589034,33.8923393 77.1491883,33.7216191 76.8784245,33.2402612 C76.6076607,32.7589034 76.7783809,32.1491883 77.2597388,31.8784245 L85.932,27 L8.067,27 L16.7402612,31.8784245 C17.1872364,32.129848 17.3663659,32.6735305 17.1728866,33.1353188 L17.1215755,33.2402612 C16.8508117,33.7216191 16.2410966,33.8923393 15.7597388,33.6215755 L3.75973876,26.8715755 L2.21027114,26 L3.75973876,25.1284245 L15.7597388,18.3784245 C16.2410966,18.1076607 16.8508117,18.2783809 17.1215755,18.7597388 Z" fill-opacity="0.95" fill="#303030" fill-rule="nonzero"></path>
        <line x1="93" y1="19" x2="93" y2="77" id="Line-2" stroke-opacity="0.95" stroke="#303030" stroke-width="2" stroke-linecap="round"></line>
        <text id="{{-.Length.Upper-}}" font-family="ArialMT, Arial" font-size="24" font-weight="normal" letter-spacing="-0.00233333333" fill="#303030" fill-opacity="0.95">
            <tspan x="-51.2317396" y="22">{{ .Length.Upper }}</tspan>
        </text>
    </g>
</g>
</g>
</g>

<g clip-path="url(#clp10)">
<clipPath id="clp10">
<rect x="1820.000000" y="722.000000" width="1934.000000" height="762.000000" />
</clipPath>

<g clip-path="url(#clp11)">
<clipPath id="clp11">
<rect x="1820.000000" y="722.000000" width="256.000000" height="762.000000" />
</clipPath>
<g transform="translate(1820, 722)">
<title>EH</title>
    <g id="EH" stroke="none" stroke-width="1" fill="none" fill-rule="evenodd">
        <g id="BF" transform="translate(0.000000, 644.000000)" stroke="#303030" stroke-opacity="0.95">
            <rect id="Rectangle-Copy-7" stroke-width="4" fill="#FFFFFF" x="2" y="2" width="252" height="54" rx="14"></rect>
            <line x1="128" y1="-113" x2="128" y2="143" id="Line-3-Copy" stroke-width="2" transform="translate(128.000000, 15.000000) rotate(-90.000000) translate(-128.000000, -15.000000) "></line>
            <line x1="128" y1="-84" x2="128" y2="172" id="Line-3-Copy" stroke-width="2" transform="translate(128.000000, 44.000000) rotate(-90.000000) translate(-128.000000, -44.000000) "></line>
        </g>
        <line x1="255" y1="703" x2="255" y2="761" id="Line-2" stroke-opacity="0.95" stroke="#303030" stroke-width="2" stroke-linecap="round"></line>
        <line x1="1" y1="703" x2="1" y2="761" id="Line-2" stroke-opacity="0.95" stroke="#303030" stroke-width="2" stroke-linecap="round"></line>
        <path id="Line-3" d="M17.1215755,746.759739 C17.3923393,747.241097 17.2216191,747.850812 16.7402612,748.121576 L8.067,753 L247.932,753 L239.259739,748.121576 C238.812764,747.870152 238.633634,747.326469 238.827113,746.864681 L238.878424,746.759739 C239.149188,746.278381 239.758903,746.107661 240.240261,746.378424 L252.240261,753.128424 L253.789729,754 L252.240261,754.871576 L240.240261,761.621576 C239.758903,761.892339 239.149188,761.721619 238.878424,761.240261 C238.607661,760.758903 238.778381,760.149188 239.259739,759.878424 L247.932,755 L8.067,755 L16.7402612,759.878424 C17.1872364,760.129848 17.3663659,760.673531 17.1728866,761.135319 L17.1215755,761.240261 C16.8508117,761.721619 16.2410966,761.892339 15.7597388,761.621576 L3.75973876,754.871576 L2.21027114,754 L3.75973876,753.128424 L15.7597388,746.378424 C16.2410966,746.107661 16.8508117,746.278381 17.1215755,746.759739 Z" fill-opacity="0.95" fill="#303030" fill-rule="nonzero"></path>
        <text id="{{-.Length.Lower-}}" font-family="ArialMT, Arial" font-size="24" font-weight="normal" letter-spacing="-0.00233333333" fill="#303030" fill-opacity="0.95">
            <tspan x="28.7682604" y="750">{{ .Length.Lower }}</tspan>
        </text>
        <g id="BOX" fill="#FFFFFF" stroke="#303030" stroke-opacity="0.95" stroke-width="4">
            <rect id="Rectangle" x="2" y="2" width="252" height="640" rx="14"></rect>
        </g>
        <g id="EK" transform="translate(36.000000, 36.000000)">
            <rect id="Rectangle" stroke-opacity="0.95" stroke="#303030" stroke-width="2" fill="#FFFFFF" x="1" y="1" width="182" height="570" rx="22"></rect>
            <path d="M92,239 C117.959372,239 139,260.011652 139,285.935276 C139,311.858485 117.959372,333 92,333 C66.0410431,333 45,311.858485 45,285.935276 C45,260.011652 66.0410431,239 92,239 Z M91.8780224,251.227351 C88.6333495,251.227351 86.0030224,253.857678 86.0030224,257.102351 L86.0030224,280.602351 L62.5030224,280.602351 C59.2583495,280.602351 56.6280224,283.232678 56.6280224,286.477351 C56.6280224,289.722024 59.2583495,292.352351 62.5030224,292.352351 L86.0030224,292.352351 L86.0030224,315.852351 C86.0030224,319.097024 88.6333495,321.727351 91.8780224,321.727351 C95.1226953,321.727351 97.7530224,319.097024 97.7530224,315.852351 L97.7530224,292.352351 L121.253022,292.352351 C124.497695,292.352351 127.128022,289.722024 127.128022,286.477351 C127.128022,283.232678 124.497695,280.602351 121.253022,280.602351 L97.7530224,280.602351 L97.7530224,257.102351 C97.7530224,253.857678 95.1226953,251.227351 91.8780224,251.227351 Z" id="Combined-Shape" fill-opacity="0.95" fill="#303030"></path>
            <path d="M70,130.867123 C70,131.70664 70.2081855,132.408649 70.6245564,132.973152 C71.0409274,133.537654 71.5822096,133.819905 72.2484031,133.819905 L89.8921221,133.819905 L80.5862314,168.992754 C80.2739532,170.121759 80.2167022,171.091546 80.4144784,171.902113 C80.6122546,172.712681 80.9557606,173.298895 81.4449965,173.660756 C81.9342323,174.022616 82.4859238,174.094988 83.100071,173.877872 C83.7142181,173.660756 84.2815235,173.10349 84.8019872,172.206076 L113.188077,122.877241 C113.729359,121.92193 114,120.995566 114,120.098152 C114,119.258636 113.791815,118.556626 113.375444,117.992124 C112.959073,117.427621 112.41779,117.14537 111.751597,117.14537 L94.1078779,117.14537 L103.413769,81.9725211 C103.726047,80.8724649 103.783298,79.917153 103.585522,79.1065853 C103.387745,78.2960176 103.044239,77.7098035 102.555004,77.3479429 C102.065768,76.9860823 101.514076,76.906473 100.899929,77.1091149 C100.285782,77.3117568 99.7184765,77.8762593 99.1980128,78.8026224 L70.8119233,128.088034 C70.2706411,129.072295 70,129.998658 70,130.867123 Z" id="Path" fill-opacity="0.95" fill="#303030" fill-rule="nonzero"></path>
        </g>
    </g>
</g>
</g>
<g clip-path="url(#clp12)">
<clipPath id="clp12">
<rect x="2086.000000" y="722.000000" width="256.000000" height="762.000000" />
</clipPath>
<g transform="translate(2086, 722)">
<title>CW</title>
    <g id="CW" stroke="none" stroke-width="1" fill="none" fill-rule="evenodd">
        <g id="BF" transform="translate(0.000000, 644.000000)" stroke="#303030" stroke-opacity="0.95">
            <rect id="Rectangle-Copy-7" stroke-width="4" fill="#FFFFFF" x="2" y="2" width="252" height="54" rx="14"></rect>
            <line x1="128" y1="-113" x2="128" y2="143" id="Line-3-Copy" stroke-width="2" transform="translate(128.000000, 15.000000) rotate(-90.000000) translate(-128.000000, -15.000000) "></line>
            <line x1="128" y1="-84" x2="128" y2="172" id="Line-3-Copy" stroke-width="2" transform="translate(128.000000, 44.000000) rotate(-90.000000) translate(-128.000000, -44.000000) "></line>
        </g>
        <line x1="255" y1="703" x2="255" y2="761" id="Line-2" stroke-opacity="0.95" stroke="#303030" stroke-width="2" stroke-linecap="round"></line>
        <line x1="1" y1="703" x2="1" y2="761" id="Line-2" stroke-opacity="0.95" stroke="#303030" stroke-width="2" stroke-linecap="round"></line>
        <path id="Line-3" d="M17.1215755,746.759739 C17.3923393,747.241097 17.2216191,747.850812 16.7402612,748.121576 L8.067,753 L247.932,753 L239.259739,748.121576 C238.812764,747.870152 238.633634,747.326469 238.827113,746.864681 L238.878424,746.759739 C239.149188,746.278381 239.758903,746.107661 240.240261,746.378424 L252.240261,753.128424 L253.789729,754 L252.240261,754.871576 L240.240261,761.621576 C239.758903,761.892339 239.149188,761.721619 238.878424,761.240261 C238.607661,760.758903 238.778381,760.149188 239.259739,759.878424 L247.932,755 L8.067,755 L16.7402612,759.878424 C17.1872364,760.129848 17.3663659,760.673531 17.1728866,761.135319 L17.1215755,761.240261 C16.8508117,761.721619 16.2410966,761.892339 15.7597388,761.621576 L3.75973876,754.871576 L2.21027114,754 L3.75973876,753.128424 L15.7597388,746.378424 C16.2410966,746.107661 16.8508117,746.278381 17.1215755,746.759739 Z" fill-opacity="0.95" fill="#303030" fill-rule="nonzero"></path>
        <text id="{{-.Length.Lower-}}" font-family="ArialMT, Arial" font-size="24" font-weight="normal" letter-spacing="-0.00233333333" fill="#303030" fill-opacity="0.95">
            <tspan x="28.7682604" y="750">{{ .Length.Lower }}</tspan>
        </text>
        <g id="BOX" fill="#FFFFFF" stroke="#303030" stroke-opacity="0.95" stroke-width="4">
            <rect id="Rectangle" x="2" y="2" width="252" height="640" rx="14"></rect>
        </g>
        <g id="COIL-" transform="translate(36.000000, 36.000000)">
            <rect id="Rectangle" stroke-opacity="0.95" stroke="#303030" stroke-width="2" fill="#FFFFFF" x="1" y="1" width="182" height="570" rx="22"></rect>
            <circle id="Oval" stroke-opacity="0.95" stroke="#303030" stroke-width="2" cx="144" cy="532" r="17"></circle>
            <circle id="Oval" stroke-opacity="0.95" stroke="#303030" stroke-width="2" cx="40" cy="40" r="17"></circle>
            <path d="M92,239 C117.959372,239 139,260.011652 139,285.935276 C139,311.858485 117.959372,333 92,333 C66.0410431,333 45,311.858485 45,285.935276 C45,260.011652 66.0410431,239 92,239 Z M121.253022,280.602351 L62.5030224,280.602351 C59.2583495,280.602351 56.6280224,283.232678 56.6280224,286.477351 C56.6280224,289.722024 59.2583495,292.352351 62.5030224,292.352351 L121.253022,292.352351 C124.497695,292.352351 127.128022,289.722024 127.128022,286.477351 C127.128022,283.232678 124.497695,280.602351 121.253022,280.602351 Z" id="Combined-Shape" fill-opacity="0.95" fill="#303030"></path>
        </g>
    </g>
</g>
</g>
<g clip-path="url(#clp13)">
<clipPath id="clp13">
<rect x="2352.000000" y="722.000000" width="644.000000" height="762.000000" />
</clipPath>
<g transform="translate(2352, 722)">
<title>WMH</title>
    <g id="WMH" stroke="none" stroke-width="1" fill="none" fill-rule="evenodd">
        <g id="BOX" fill="#FFFFFF" stroke="#303030" stroke-opacity="0.95" stroke-width="4">
            <rect id="Rectangle" x="2" y="2" width="640" height="640" rx="14"></rect>
        </g>
        <g id="BF" transform="translate(0.000000, 644.000000)" stroke="#303030" stroke-opacity="0.95">
            <rect id="Rectangle-Copy-7" stroke-width="4" fill="#FFFFFF" x="2" y="2" width="640" height="54" rx="14"></rect>
            <line x1="322" y1="-307" x2="322" y2="337" id="Line-3-Copy" stroke-width="2" transform="translate(322.000000, 15.000000) rotate(-90.000000) translate(-322.000000, -15.000000) "></line>
            <line x1="322" y1="-278" x2="322" y2="366" id="Line-3-Copy" stroke-width="2" transform="translate(322.000000, 44.000000) rotate(-90.000000) translate(-322.000000, -44.000000) "></line>
        </g>
        <line x1="643" y1="703" x2="643" y2="761" id="Line-2" stroke-opacity="0.95" stroke="#303030" stroke-width="2" stroke-linecap="round"></line>
        <line x1="1" y1="703" x2="1" y2="761" id="Line-2" stroke-opacity="0.95" stroke="#303030" stroke-width="2" stroke-linecap="round"></line>
        <path id="Line-3" d="M17.1215755,746.759739 C17.3923393,747.241097 17.2216191,747.850812 16.7402612,748.121576 L8.067,753 L635.932,753 L627.259739,748.121576 C626.812764,747.870152 626.633634,747.326469 626.827113,746.864681 L626.878424,746.759739 C627.149188,746.278381 627.758903,746.107661 628.240261,746.378424 L640.240261,753.128424 L641.789729,754 L640.240261,754.871576 L628.240261,761.621576 C627.758903,761.892339 627.149188,761.721619 626.878424,761.240261 C626.607661,760.758903 626.778381,760.149188 627.259739,759.878424 L635.932,755 L8.067,755 L16.7402612,759.878424 C17.1872364,760.129848 17.3663659,760.673531 17.1728866,761.135319 L17.1215755,761.240261 C16.8508117,761.721619 16.2410966,761.892339 15.7597388,761.621576 L3.75973876,754.871576 L2.21027114,754 L3.75973876,753.128424 L15.7597388,746.378424 C16.2410966,746.107661 16.8508117,746.278381 17.1215755,746.759739 Z" fill-opacity="0.95" fill="#303030" fill-rule="nonzero"></path>
        <text id="{{-.Length.Lower-}}" font-family="ArialMT, Arial" font-size="24" font-weight="normal" letter-spacing="-0.00233333333" fill="#303030" fill-opacity="0.95">
            <tspan x="223.76826" y="750">{{ .Length.Lower }}</tspan>
        </text>
        <g id="WetMedia" transform="translate(36.000000, 36.000000)" stroke="#303030" stroke-opacity="0.95">
            <rect id="Rectangle" stroke-width="2" fill="#FFFFFF" x="1" y="1" width="214" height="438" rx="22"></rect>
            <rect id="Rectangle" stroke-width="2" fill="#FFFFFF" x="271" y="359" width="80" height="80" rx="22"></rect>
            <rect id="Rectangle" fill="#FFFFFF" x="322.5" y="426.5" width="29" height="35"></rect>
            <circle id="Oval" fill="#FFFFFF" cx="337" cy="426" r="14.5"></circle>
            <rect id="Rectangle" fill="#FFFFFF" x="331.5" y="542.5" width="35" height="29"></rect>
            <circle id="Oval" fill="#FFFFFF" cx="367" cy="557" r="14.5"></circle>
            <rect id="Rectangle" stroke-width="2" fill="#FFFFFF" x="1" y="441" width="350" height="130" rx="22"></rect>
            <path d="M15.9475054,2.07716924 C15.2576338,13.279211 8,13.8646146 8,26.1818182 C8,39.1136364 16,39.1136364 16,52.0454545 C16,64.9772727 8,64.9772727 8,77.9090909 C8,90.8409091 16,90.8409091 16,103.772727 C16,116.704545 8,116.704545 8,129.636364 C8,142.568182 16,142.568182 16,155.5 C16,168.431818 8,168.431818 8,181.363636 C8,194.295455 16,194.295455 16,207.227273 C16,220.159091 8,220.159091 8,233.090909 C8,246.022727 16,246.022727 16,258.954545 C16,271.886364 8,271.886364 8,284.818182 C8,297.75 16,297.75 16,310.681818 C16,323.613636 8,323.613636 8,336.545455 C8,349.477273 16,349.477273 16,362.409091 C16,375.340909 8,375.340909 8,388.272727 C8,401.204545 16,401.204545 16,414.136364 C16,424.751481 10.6096073,426.656666 8.67825824,434.148175" id="Path-10"></path>
            <path d="M144,0.318181818 C144,13.25 136,13.25 136,26.1818182 C136,39.1136364 144,39.1136364 144,52.0454545 C144,64.9772727 136,64.9772727 136,77.9090909 C136,90.8409091 144,90.8409091 144,103.772727 C144,116.704545 136,116.704545 136,129.636364 C136,142.568182 144,142.568182 144,155.5 C144,168.431818 136,168.431818 136,181.363636 C136,194.295455 144,194.295455 144,207.227273 C144,220.159091 136,220.159091 136,233.090909 C136,246.022727 144,246.022727 144,258.954545 C144,271.886364 136,271.886364 136,284.818182 C136,297.75 144,297.75 144,310.681818 C144,323.613636 136,323.613636 136,336.545455 C136,349.477273 144,349.477273 144,362.409091 C144,375.340909 136,375.340909 136,388.272727 C136,401.204545 144,401.204545 144,414.136364 C144,427.068182 136,427.073398 136,440" id="Path-10-Copy-7"></path>
            <path d="M80,0.318181818 C80,13.25 72,13.25 72,26.1818182 C72,39.1136364 80,39.1136364 80,52.0454545 C80,64.9772727 72,64.9772727 72,77.9090909 C72,90.8409091 80,90.8409091 80,103.772727 C80,116.704545 72,116.704545 72,129.636364 C72,142.568182 80,142.568182 80,155.5 C80,168.431818 72,168.431818 72,181.363636 C72,194.295455 80,194.295455 80,207.227273 C80,220.159091 72,220.159091 72,233.090909 C72,246.022727 80,246.022727 80,258.954545 C80,271.886364 72,271.886364 72,284.818182 C72,297.75 80,297.75 80,310.681818 C80,323.613636 72,323.613636 72,336.545455 C72,349.477273 80,349.477273 80,362.409091 C80,375.340909 72,375.340909 72,388.272727 C72,401.204545 80,401.204545 80,414.136364 C80,427.068182 72,427.073398 72,440" id="Path-10-Copy-3"></path>
            <path d="M207.311819,6.21022762 C205.372001,13.67155 200,15.584825 200,26.1818182 C200,39.1136364 208,39.1136364 208,52.0454545 C208,64.9772727 200,64.9772727 200,77.9090909 C200,90.8409091 208,90.8409091 208,103.772727 C208,116.704545 200,116.704545 200,129.636364 C200,142.568182 208,142.568182 208,155.5 C208,168.431818 200,168.431818 200,181.363636 C200,194.295455 208,194.295455 208,207.227273 C208,220.159091 200,220.159091 200,233.090909 C200,246.022727 208,246.022727 208,258.954545 C208,271.886364 200,271.886364 200,284.818182 C200,297.75 208,297.75 208,310.681818 C208,323.613636 200,323.613636 200,336.545455 C200,349.477273 208,349.477273 208,362.409091 C208,375.340909 200,375.340909 200,388.272727 C200,401.204545 208,401.204545 208,414.136364 C208,426.309679 200.910942,427.028315 200.079338,437.853553" id="Path-10-Copy-8"></path>
            <path d="M48,0.318181818 C48,13.25 40,13.25 40,26.1818182 C40,39.1136364 48,39.1136364 48,52.0454545 C48,64.9772727 40,64.9772727 40,77.9090909 C40,90.8409091 48,90.8409091 48,103.772727 C48,116.704545 40,116.704545 40,129.636364 C40,142.568182 48,142.568182 48,155.5 C48,168.431818 40,168.431818 40,181.363636 C40,194.295455 48,194.295455 48,207.227273 C48,220.159091 40,220.159091 40,233.090909 C40,246.022727 48,246.022727 48,258.954545 C48,271.886364 40,271.886364 40,284.818182 C40,297.75 48,297.75 48,310.681818 C48,323.613636 40,323.613636 40,336.545455 C40,349.477273 48,349.477273 48,362.409091 C48,375.340909 40,375.340909 40,388.272727 C40,401.204545 48,401.204545 48,414.136364 C48,427.068182 40,427.073398 40,440" id="Path-10-Copy"></path>
            <path d="M176,0.318181818 C176,13.25 168,13.25 168,26.1818182 C168,39.1136364 176,39.1136364 176,52.0454545 C176,64.9772727 168,64.9772727 168,77.9090909 C168,90.8409091 176,90.8409091 176,103.772727 C176,116.704545 168,116.704545 168,129.636364 C168,142.568182 176,142.568182 176,155.5 C176,168.431818 168,168.431818 168,181.363636 C168,194.295455 176,194.295455 176,207.227273 C176,220.159091 168,220.159091 168,233.090909 C168,246.022727 176,246.022727 176,258.954545 C176,271.886364 168,271.886364 168,284.818182 C168,297.75 176,297.75 176,310.681818 C176,323.613636 168,323.613636 168,336.545455 C168,349.477273 176,349.477273 176,362.409091 C176,375.340909 168,375.340909 168,388.272727 C168,401.204545 176,401.204545 176,414.136364 C176,427.068182 168,427.073398 168,440" id="Path-10-Copy-9"></path>
            <path d="M112,0.318181818 C112,13.25 104,13.25 104,26.1818182 C104,39.1136364 112,39.1136364 112,52.0454545 C112,64.9772727 104,64.9772727 104,77.9090909 C104,90.8409091 112,90.8409091 112,103.772727 C112,116.704545 104,116.704545 104,129.636364 C104,142.568182 112,142.568182 112,155.5 C112,168.431818 104,168.431818 104,181.363636 C104,194.295455 112,194.295455 112,207.227273 C112,220.159091 104,220.159091 104,233.090909 C104,246.022727 112,246.022727 112,258.954545 C112,271.886364 104,271.886364 104,284.818182 C104,297.75 112,297.75 112,310.681818 C112,323.613636 104,323.613636 104,336.545455 C104,349.477273 112,349.477273 112,362.409091 C112,375.340909 104,375.340909 104,388.272727 C104,401.204545 112,401.204545 112,414.136364 C112,427.068182 104,427.073398 104,440" id="Path-10-Copy-4"></path>
            <path d="M32,0.318181818 C32,13.25 24,13.25 24,26.1818182 C24,39.1136364 32,39.1136364 32,52.0454545 C32,64.9772727 24,64.9772727 24,77.9090909 C24,90.8409091 32,90.8409091 32,103.772727 C32,116.704545 24,116.704545 24,129.636364 C24,142.568182 32,142.568182 32,155.5 C32,168.431818 24,168.431818 24,181.363636 C24,194.295455 32,194.295455 32,207.227273 C32,220.159091 24,220.159091 24,233.090909 C24,246.022727 32,246.022727 32,258.954545 C32,271.886364 24,271.886364 24,284.818182 C24,297.75 32,297.75 32,310.681818 C32,323.613636 24,323.613636 24,336.545455 C24,349.477273 32,349.477273 32,362.409091 C32,375.340909 24,375.340909 24,388.272727 C24,401.204545 32,401.204545 32,414.136364 C32,427.068182 24,427.073398 24,440" id="Path-10"></path>
            <path d="M160,0.318181818 C160,13.25 152,13.25 152,26.1818182 C152,39.1136364 160,39.1136364 160,52.0454545 C160,64.9772727 152,64.9772727 152,77.9090909 C152,90.8409091 160,90.8409091 160,103.772727 C160,116.704545 152,116.704545 152,129.636364 C152,142.568182 160,142.568182 160,155.5 C160,168.431818 152,168.431818 152,181.363636 C152,194.295455 160,194.295455 160,207.227273 C160,220.159091 152,220.159091 152,233.090909 C152,246.022727 160,246.022727 160,258.954545 C160,271.886364 152,271.886364 152,284.818182 C152,297.75 160,297.75 160,310.681818 C160,323.613636 152,323.613636 152,336.545455 C152,349.477273 160,349.477273 160,362.409091 C160,375.340909 152,375.340909 152,388.272727 C152,401.204545 160,401.204545 160,414.136364 C160,427.068182 152,427.073398 152,440" id="Path-10-Copy-11"></path>
            <path d="M96,0.318181818 C96,13.25 88,13.25 88,26.1818182 C88,39.1136364 96,39.1136364 96,52.0454545 C96,64.9772727 88,64.9772727 88,77.9090909 C88,90.8409091 96,90.8409091 96,103.772727 C96,116.704545 88,116.704545 88,129.636364 C88,142.568182 96,142.568182 96,155.5 C96,168.431818 88,168.431818 88,181.363636 C88,194.295455 96,194.295455 96,207.227273 C96,220.159091 88,220.159091 88,233.090909 C88,246.022727 96,246.022727 96,258.954545 C96,271.886364 88,271.886364 88,284.818182 C88,297.75 96,297.75 96,310.681818 C96,323.613636 88,323.613636 88,336.545455 C88,349.477273 96,349.477273 96,362.409091 C96,375.340909 88,375.340909 88,388.272727 C88,401.204545 96,401.204545 96,414.136364 C96,427.068182 88,427.073398 88,440" id="Path-10-Copy-5"></path>
            <path d="M64,0.318181818 C64,13.25 56,13.25 56,26.1818182 C56,39.1136364 64,39.1136364 64,52.0454545 C64,64.9772727 56,64.9772727 56,77.9090909 C56,90.8409091 64,90.8409091 64,103.772727 C64,116.704545 56,116.704545 56,129.636364 C56,142.568182 64,142.568182 64,155.5 C64,168.431818 56,168.431818 56,181.363636 C56,194.295455 64,194.295455 64,207.227273 C64,220.159091 56,220.159091 56,233.090909 C56,246.022727 64,246.022727 64,258.954545 C64,271.886364 56,271.886364 56,284.818182 C56,297.75 64,297.75 64,310.681818 C64,323.613636 56,323.613636 56,336.545455 C56,349.477273 64,349.477273 64,362.409091 C64,375.340909 56,375.340909 56,388.272727 C56,401.204545 64,401.204545 64,414.136364 C64,427.068182 56,427.073398 56,440" id="Path-10-Copy-2"></path>
            <path d="M192,0.318181818 C192,13.25 184,13.25 184,26.1818182 C184,39.1136364 192,39.1136364 192,52.0454545 C192,64.9772727 184,64.9772727 184,77.9090909 C184,90.8409091 192,90.8409091 192,103.772727 C192,116.704545 184,116.704545 184,129.636364 C184,142.568182 192,142.568182 192,155.5 C192,168.431818 184,168.431818 184,181.363636 C184,194.295455 192,194.295455 192,207.227273 C192,220.159091 184,220.159091 184,233.090909 C184,246.022727 192,246.022727 192,258.954545 C192,271.886364 184,271.886364 184,284.818182 C184,297.75 192,297.75 192,310.681818 C192,323.613636 184,323.613636 184,336.545455 C184,349.477273 192,349.477273 192,362.409091 C192,375.340909 184,375.340909 184,388.272727 C184,401.204545 192,401.204545 192,414.136364 C192,427.068182 184,427.073398 184,440" id="Path-10-Copy-13"></path>
            <path d="M128,0.318181818 C128,13.25 120,13.25 120,26.1818182 C120,39.1136364 128,39.1136364 128,52.0454545 C128,64.9772727 120,64.9772727 120,77.9090909 C120,90.8409091 128,90.8409091 128,103.772727 C128,116.704545 120,116.704545 120,129.636364 C120,142.568182 128,142.568182 128,155.5 C128,168.431818 120,168.431818 120,181.363636 C120,194.295455 128,194.295455 128,207.227273 C128,220.159091 120,220.159091 120,233.090909 C120,246.022727 128,246.022727 128,258.954545 C128,271.886364 120,271.886364 120,284.818182 C120,297.75 128,297.75 128,310.681818 C128,323.613636 120,323.613636 120,336.545455 C120,349.477273 128,349.477273 128,362.409091 C128,375.340909 120,375.340909 120,388.272727 C120,401.204545 128,401.204545 128,414.136364 C128,427.068182 120,427.073398 120,440" id="Path-10-Copy-6"></path>
            <path d="M236,51 C244.008129,51 251.258129,54.2459356 256.506097,59.4939033 C261.754064,64.7418711 265,71.9918711 265,80 L265,441 L237,441 L237,81 C237,80.4477153 236.776142,79.9477153 236.414214,79.5857864 C236.052285,79.2238576 235.552285,79 235,79 L215,79 L215,51 Z" id="Path-9" stroke-width="2" fill="#FFFFFF"></path>
        </g>
        <g id="HumidityPic" transform="translate(321.000000, 107.500000)" fill="#303030" fill-opacity="0.95" fill-rule="nonzero">
            <path d="M205.440324,208 C214.988413,208 223.661259,205.759715 231.458864,201.279144 C239.25647,196.798573 245.462727,190.77161 250.077636,183.198255 C254.692545,175.624901 257,167.159397 257,157.801745 C257,150.109437 255.428544,142.536082 252.285632,135.081681 C249.142719,127.62728 245.860564,120.767645 242.439166,114.502776 L215.346466,64.185567 C213.198146,60.0618557 209.896099,58 205.440324,58 C200.98455,58 197.642719,60.0618557 195.414832,64.185567 L168.441483,114.502776 C165.020085,120.767645 161.757822,127.62728 158.654693,135.081681 C155.551564,142.536082 154,150.109437 154,157.801745 C154,167.159397 156.307455,175.624901 160.922364,183.198255 C165.537273,190.77161 171.723638,196.798573 179.48146,201.279144 C187.239282,205.759715 195.892236,208 205.440324,208 Z M49.2299322,64 C59.7853592,64 69.5273041,62.4931846 78.4557668,59.4795539 C87.3842295,56.4659232 95.8960307,52.7385378 103.99117,48.2973978 C112.08631,43.8562577 120.121926,39.3952912 128.09802,34.9144981 C136.074113,30.4337051 144.347822,26.6864932 152.919146,23.6728625 C161.49047,20.6592317 170.776071,19.1524164 180.77595,19.1524164 C186.56953,19.1524164 192.204382,19.866171 197.680506,21.2936803 C203.156629,22.7211896 208.910528,25.1796778 214.9422,28.669145 C217.481852,30.0966543 219.862775,30.4535316 222.08497,29.739777 C224.307165,29.0260223 226.053176,27.7967782 227.323002,26.0520446 C228.751556,23.9107807 229.267423,21.4324659 228.870602,18.6171004 C228.473781,15.8017348 226.608725,13.4027261 223.275432,11.4200743 C216.608847,7.53407683 209.763692,4.65923172 202.739968,2.79553903 C195.716244,0.931846344 188.394904,0 180.77595,0 C169.98243,0 160.061916,1.50681537 151.014407,4.5204461 C141.966898,7.53407683 133.375733,11.2812887 125.240911,15.7620818 C117.10609,20.2428748 109.090314,24.7038414 101.193585,29.1449814 C93.296856,33.5861214 85.1025113,37.3135068 76.6105512,40.3271375 C68.1185911,43.3407683 58.9917181,44.8475836 49.2299322,44.8475836 C43.3569879,44.8475836 37.6824538,44.133829 32.20633,42.7063197 C26.7302062,41.2788104 20.976308,38.8203222 14.9446354,35.330855 C12.4049838,33.9033457 10.0240604,33.5464684 7.80186523,34.260223 C5.57967007,34.9739777 3.83365958,36.2428748 2.56383377,38.0669145 C1.21464385,40.2081784 0.738459173,42.6864932 1.13527974,45.5018587 C1.5321003,48.3172243 3.3574749,50.6765799 6.61140354,52.5799257 C13.3573531,56.4659232 20.2223489,59.3407683 27.2063909,61.204461 C34.1904328,63.0681537 41.5316133,64 49.2299322,64 Z M49.2348512,127 C58.6812958,127 67.4529945,125.750929 75.5499471,123.252788 C83.6468996,120.754647 91.3866337,117.622057 98.7691493,113.855019 C106.151665,110.08798 113.395262,106.16233 120.499941,102.078067 C127.60462,97.9938042 134.868063,94.2862454 142.290269,90.9553903 C149.712476,87.6245353 157.551437,85.2453532 165.807154,83.8178439 C167.632937,80.3283767 169.498412,76.8587361 171.403577,73.4089219 C173.308742,69.9591078 175.174217,66.4894672 177,63 C166.442209,63.4758364 156.757619,65.2998761 147.946229,68.472119 C139.134839,71.6443618 130.819587,75.4114002 123.000471,79.7732342 C115.181355,84.1350682 107.441621,88.4572491 99.7812684,92.739777 C92.1209162,97.0223048 84.1827274,100.610905 75.966702,103.505576 C67.7506766,106.400248 58.8400596,107.847584 49.2348512,107.847584 C43.3605914,107.847584 37.7046319,107.114002 32.2669726,105.64684 C26.8293133,104.179678 21.0542809,101.701363 14.9418755,98.2118959 C12.4016551,96.7843866 10.0201985,96.4275093 7.79750559,97.1412639 C5.57481272,97.8550186 3.86810213,99.1239157 2.67737381,100.947955 C1.24849982,103.089219 0.732517551,105.567534 1.12942699,108.3829 C1.52633643,111.198265 3.35211986,113.557621 6.60677727,115.460967 C13.3542378,119.346964 20.2406165,122.241636 27.2659136,124.144981 C34.2912107,126.048327 41.6141899,127 49.2348512,127 Z M48.4458194,192 C57.4541074,192 65.8844301,190.845771 73.7367873,188.537313 C81.5891446,186.228856 89.0628349,183.283582 96.1578582,179.701493 C103.252882,176.119403 110.228326,172.378109 117.084191,168.477612 C123.940056,164.577114 130.915501,160.995025 138.010524,157.731343 C137.691646,155.104478 137.851085,151.701493 138.48884,147.522388 C139.126595,143.343284 139.963648,139.502488 141,136 C133.028064,139.18408 125.394935,142.865672 118.100613,147.044776 C110.806291,151.223881 103.511969,155.263682 96.2176477,159.164179 C88.923326,163.064677 81.3699163,166.308458 73.5574188,168.895522 C65.7449212,171.482587 57.374388,172.776119 48.4458194,172.776119 C42.5465865,172.776119 36.846652,172.039801 31.346016,170.567164 C25.8453799,169.094527 20.0657261,166.606965 14.0070545,163.104478 C11.4560348,161.671642 9.06445395,161.313433 6.83231178,162.029851 C4.60016962,162.746269 2.84634363,164.0199 1.57083382,165.850746 C0.215604641,168 -0.262711538,170.487562 0.135885278,173.313433 C0.534482094,176.139303 2.36802745,178.507463 5.63652134,180.41791 C12.4126672,184.318408 19.3083921,187.223881 26.3236961,189.134328 C33.339,191.044776 40.7130411,192 48.4458194,192 Z" id="Shape"></path>
        </g>
    </g>
</g>
</g>
<g clip-path="url(#clp14)">
<clipPath id="clp14">
<rect x="3006.000000" y="722.000000" width="644.000000" height="762.000000" />
</clipPath>
<g transform="translate(3006, 722)">
<title>STS2</title>
    <g id="STS2" stroke="none" stroke-width="1" fill="none" fill-rule="evenodd">
        <g id="BOX" fill="#FFFFFF" stroke="#303030" stroke-opacity="0.95" stroke-width="4">
            <rect id="Rectangle" x="2" y="2" width="640" height="640" rx="14"></rect>
        </g>
        <g id="BF" transform="translate(0.000000, 644.000000)" stroke="#303030" stroke-opacity="0.95">
            <rect id="Rectangle-Copy-7" stroke-width="4" fill="#FFFFFF" x="2" y="2" width="640" height="54" rx="14"></rect>
            <line x1="322" y1="-307" x2="322" y2="337" id="Line-3-Copy" stroke-width="2" transform="translate(322.000000, 15.000000) rotate(-90.000000) translate(-322.000000, -15.000000) "></line>
            <line x1="322" y1="-278" x2="322" y2="366" id="Line-3-Copy" stroke-width="2" transform="translate(322.000000, 44.000000) rotate(-90.000000) translate(-322.000000, -44.000000) "></line>
        </g>
        <line x1="643" y1="703" x2="643" y2="761" id="Line-2" stroke-opacity="0.95" stroke="#303030" stroke-width="2" stroke-linecap="round"></line>
        <line x1="1" y1="703" x2="1" y2="761" id="Line-2" stroke-opacity="0.95" stroke="#303030" stroke-width="2" stroke-linecap="round"></line>
        <path id="Line-3" d="M17.1215755,746.759739 C17.3923393,747.241097 17.2216191,747.850812 16.7402612,748.121576 L8.067,753 L635.932,753 L627.259739,748.121576 C626.812764,747.870152 626.633634,747.326469 626.827113,746.864681 L626.878424,746.759739 C627.149188,746.278381 627.758903,746.107661 628.240261,746.378424 L640.240261,753.128424 L641.789729,754 L640.240261,754.871576 L628.240261,761.621576 C627.758903,761.892339 627.149188,761.721619 626.878424,761.240261 C626.607661,760.758903 626.778381,760.149188 627.259739,759.878424 L635.932,755 L8.067,755 L16.7402612,759.878424 C17.1872364,760.129848 17.3663659,760.673531 17.1728866,761.135319 L17.1215755,761.240261 C16.8508117,761.721619 16.2410966,761.892339 15.7597388,761.621576 L3.75973876,754.871576 L2.21027114,754 L3.75973876,753.128424 L15.7597388,746.378424 C16.2410966,746.107661 16.8508117,746.278381 17.1215755,746.759739 Z" fill-opacity="0.95" fill="#303030" fill-rule="nonzero"></path>
        <text id="{{-.Length.Lower-}}" font-family="ArialMT, Arial" font-size="24" font-weight="normal" letter-spacing="-0.00233333333" fill="#303030" fill-opacity="0.95">
            <tspan x="223.76826" y="750">{{ .Length.Lower }}</tspan>
        </text>
        <g id="STS-Copy" transform="translate(58.000000, 58.000000)" stroke="#303030" stroke-opacity="0.95" stroke-width="2">
            <rect id="Rectangle" fill="#FFFFFF" x="1" y="1" width="526" height="526" rx="22"></rect>
            <line x1="264" y1="201" x2="264" y2="527" id="Line-3-Copy" stroke-linecap="round"></line>
            <line x1="95" y1="1" x2="95" y2="327" id="Line-3" stroke-linecap="round"></line>
            <line x1="433" y1="1" x2="433" y2="327" id="Line-3" stroke-linecap="round"></line>
        </g>
    </g>
</g>
</g>
<g clip-path="url(#clp15)">
<clipPath id="clp15">
<rect x="3660.000000" y="780.000000" width="94.000000" height="704.000000" />
</clipPath>
<g transform="translate(3660, 780)">
<title>FC2</title>
    <g id="FC2" stroke="none" stroke-width="1" fill="none" fill-rule="evenodd">
        <g id="FlexCon" stroke="#303030" stroke-opacity="0.95">
            <path d="M86,1 C87.9329966,1 89.6829966,1.78350169 90.9497475,3.05025253 C92.2164983,4.31700338 93,6.06700338 93,8 L93,520 C93,521.932997 92.2164983,523.682997 90.9497475,524.949747 C89.6829966,526.216498 87.9329966,527 86,527 L79.6832591,527 C77.8636582,527.000165 76.1957512,526.303183 74.9446692,525.152859 C73.6935711,524.00252 72.8593077,522.398826 72.707039,520.585835 C71.8845408,510.76342 69.3181724,503.419986 65.0899645,498.514443 C60.7915232,493.527415 54.7728637,491 46.9997729,491 C39.2268193,491 33.2082671,493.527327 28.9099021,498.514176 C24.681766,503.419547 22.1154401,510.762722 21.2929639,520.584695 C21.1409346,522.39812 20.3067658,524.002031 19.0556575,525.152543 C17.8045554,526.30305 16.1365175,527.000164 14.3166504,527 L8,527 C6.06700338,527 4.31700338,526.216498 3.05025253,524.949747 C1.78350169,523.682997 1,521.932997 1,520 L1,8 C1,6.06700338 1.78350169,4.31700338 3.05025253,3.05025253 C4.31700338,1.78350169 6.06700338,1 8,1 L14.3167405,0.999999996 C16.1363408,0.999836061 17.8042472,1.69681781 19.0553287,2.8471421 C20.3064264,3.99748125 21.1406896,5.60117424 21.2929583,7.41416472 C22.1154489,17.2365777 24.6817939,24.5800108 28.9099629,29.4855536 C33.2083675,34.472584 39.2269757,37 47,37 C54.7730243,37 60.7916325,34.472584 65.0900371,29.4855536 C69.3182061,24.5800108 71.8845511,17.2365777 72.7070208,7.4144136 C72.8593104,5.60117424 73.6935736,3.99748125 74.9446713,2.8471421 C76.1957528,1.69681781 77.8636592,0.999836061 79.6833496,1 Z" id="Stroke-289" stroke-width="2" fill="#FFFFFF"></path>
            <line x1="21" y1="6" x2="21" y2="522" id="Line" stroke-width="2"></line>
            <line x1="73" y1="6" x2="73" y2="522" id="Line" stroke-width="2"></line>
            <line x1="47" y1="36" x2="47" y2="492" id="Line-Copy"></line>
        </g>
        <line x1="1" y1="645" x2="1" y2="703" id="Line-2" stroke-opacity="0.95" stroke="#303030" stroke-width="2" stroke-linecap="round"></line>
        <path id="Line-3" d="M17.1215755,688.759739 C17.3923393,689.241097 17.2216191,689.850812 16.7402612,690.121576 L8.067,695 L85.932,695 L77.2597388,690.121576 C76.8127636,689.870152 76.6336341,689.326469 76.8271134,688.864681 L76.8784245,688.759739 C77.1491883,688.278381 77.7589034,688.107661 78.2402612,688.378424 L90.2402612,695.128424 L91.7897289,696 L90.2402612,696.871576 L78.2402612,703.621576 C77.7589034,703.892339 77.1491883,703.721619 76.8784245,703.240261 C76.6076607,702.758903 76.7783809,702.149188 77.2597388,701.878424 L85.932,697 L8.067,697 L16.7402612,701.878424 C17.1872364,702.129848 17.3663659,702.673531 17.1728866,703.135319 L17.1215755,703.240261 C16.8508117,703.721619 16.2410966,703.892339 15.7597388,703.621576 L3.75973876,696.871576 L2.21027114,696 L3.75973876,695.128424 L15.7597388,688.378424 C16.2410966,688.107661 16.8508117,688.278381 17.1215755,688.759739 Z" fill-opacity="0.95" fill="#303030" fill-rule="nonzero"></path>
        <line x1="93" y1="645" x2="93" y2="703" id="Line-2" stroke-opacity="0.95" stroke="#303030" stroke-width="2" stroke-linecap="round"></line>
        <text id="{{-.Length.Lower-}}" font-family="ArialMT, Arial" font-size="24" font-weight="normal" letter-spacing="-0.00233333333" fill="#303030" fill-opacity="0.95">
            <tspan x="-51.2317396" y="692">{{ .Length.Lower }}</tspan>
        </text>
    </g>
</g>
</g>
</g>

</g>

</g>

</svg>